<?xml version="1.0" encoding="utf-8" standalone="no"?>
<!DOCTYPE svg PUBLIC "-//W3C//DTD SVG 1.1//EN"
  "http://www.w3.org/Graphics/SVG/1.1/DTD/svg11.dtd">
<svg xmlns:xlink="http://www.w3.org/1999/xlink" width="460.8pt" height="345.6pt" viewBox="0 0 460.8 345.6" xmlns="http://www.w3.org/2000/svg" version="1.1">
 <metadata>
  <rdf:RDF xmlns:dc="http://purl.org/dc/elements/1.1/" xmlns:cc="http://creativecommons.org/ns#" xmlns:rdf="http://www.w3.org/1999/02/22-rdf-syntax-ns#">
   <cc:Work>
    <dc:type rdf:resource="http://purl.org/dc/dcmitype/StillImage"/>
    <dc:date>2023-07-19T12:12:17.747512</dc:date>
    <dc:format>image/svg+xml</dc:format>
    <dc:creator>
     <cc:Agent>
      <dc:title>Matplotlib v3.5.1, https://matplotlib.org/</dc:title>
     </cc:Agent>
    </dc:creator>
   </cc:Work>
  </rdf:RDF>
 </metadata>
 <defs>
  <style type="text/css">*{stroke-linejoin: round; stroke-linecap: butt}</style>
 </defs>
 <g id="figure_1">
  <g id="patch_1">
   <path d="M 0 345.6 
L 460.8 345.6 
L 460.8 0 
L 0 0 
z
" style="fill: #ffffff"/>
  </g>
  <g id="axes_1">
   <g id="patch_2">
    <path d="M 68.102045 303.64 
L 318.594275 303.64 
L 318.594275 10.8 
L 68.102045 10.8 
z
" style="fill: #ffffff"/>
   </g>
   <g id="matplotlib.axis_1">
    <g id="xtick_1">
     <g id="line2d_1">
      <defs>
       <path id="m7e8dfa8788" d="M 0 0 
L 0 3.5 
" style="stroke: #000000; stroke-width: 0.8"/>
      </defs>
      <g>
       <use xlink:href="#m7e8dfa8788" x="68.102045" y="303.64" style="stroke: #000000; stroke-width: 0.8"/>
      </g>
     </g>
     <g id="text_1">
      <!-- −0.5 -->
      <g transform="translate(55.960638 318.238437)scale(0.1 -0.1)">
       <defs>
        <path id="DejaVuSans-2212" d="M 678 2272 
L 4684 2272 
L 4684 1741 
L 678 1741 
L 678 2272 
z
" transform="scale(0.015625)"/>
        <path id="DejaVuSans-30" d="M 2034 4250 
Q 1547 4250 1301 3770 
Q 1056 3291 1056 2328 
Q 1056 1369 1301 889 
Q 1547 409 2034 409 
Q 2525 409 2770 889 
Q 3016 1369 3016 2328 
Q 3016 3291 2770 3770 
Q 2525 4250 2034 4250 
z
M 2034 4750 
Q 2819 4750 3233 4129 
Q 3647 3509 3647 2328 
Q 3647 1150 3233 529 
Q 2819 -91 2034 -91 
Q 1250 -91 836 529 
Q 422 1150 422 2328 
Q 422 3509 836 4129 
Q 1250 4750 2034 4750 
z
" transform="scale(0.015625)"/>
        <path id="DejaVuSans-2e" d="M 684 794 
L 1344 794 
L 1344 0 
L 684 0 
L 684 794 
z
" transform="scale(0.015625)"/>
        <path id="DejaVuSans-35" d="M 691 4666 
L 3169 4666 
L 3169 4134 
L 1269 4134 
L 1269 2991 
Q 1406 3038 1543 3061 
Q 1681 3084 1819 3084 
Q 2600 3084 3056 2656 
Q 3513 2228 3513 1497 
Q 3513 744 3044 326 
Q 2575 -91 1722 -91 
Q 1428 -91 1123 -41 
Q 819 9 494 109 
L 494 744 
Q 775 591 1075 516 
Q 1375 441 1709 441 
Q 2250 441 2565 725 
Q 2881 1009 2881 1497 
Q 2881 1984 2565 2268 
Q 2250 2553 1709 2553 
Q 1456 2553 1204 2497 
Q 953 2441 691 2322 
L 691 4666 
z
" transform="scale(0.015625)"/>
       </defs>
       <use xlink:href="#DejaVuSans-2212"/>
       <use xlink:href="#DejaVuSans-30" x="83.789062"/>
       <use xlink:href="#DejaVuSans-2e" x="147.412109"/>
       <use xlink:href="#DejaVuSans-35" x="179.199219"/>
      </g>
     </g>
    </g>
    <g id="xtick_2">
     <g id="line2d_2">
      <g>
       <use xlink:href="#m7e8dfa8788" x="118.200491" y="303.64" style="stroke: #000000; stroke-width: 0.8"/>
      </g>
     </g>
     <g id="text_2">
      <!-- 0.0 -->
      <g transform="translate(110.248928 318.238437)scale(0.1 -0.1)">
       <use xlink:href="#DejaVuSans-30"/>
       <use xlink:href="#DejaVuSans-2e" x="63.623047"/>
       <use xlink:href="#DejaVuSans-30" x="95.410156"/>
      </g>
     </g>
    </g>
    <g id="xtick_3">
     <g id="line2d_3">
      <g>
       <use xlink:href="#m7e8dfa8788" x="168.298937" y="303.64" style="stroke: #000000; stroke-width: 0.8"/>
      </g>
     </g>
     <g id="text_3">
      <!-- 0.5 -->
      <g transform="translate(160.347374 318.238437)scale(0.1 -0.1)">
       <use xlink:href="#DejaVuSans-30"/>
       <use xlink:href="#DejaVuSans-2e" x="63.623047"/>
       <use xlink:href="#DejaVuSans-35" x="95.410156"/>
      </g>
     </g>
    </g>
    <g id="xtick_4">
     <g id="line2d_4">
      <g>
       <use xlink:href="#m7e8dfa8788" x="218.397383" y="303.64" style="stroke: #000000; stroke-width: 0.8"/>
      </g>
     </g>
     <g id="text_4">
      <!-- 1.0 -->
      <g transform="translate(210.44582 318.238437)scale(0.1 -0.1)">
       <defs>
        <path id="DejaVuSans-31" d="M 794 531 
L 1825 531 
L 1825 4091 
L 703 3866 
L 703 4441 
L 1819 4666 
L 2450 4666 
L 2450 531 
L 3481 531 
L 3481 0 
L 794 0 
L 794 531 
z
" transform="scale(0.015625)"/>
       </defs>
       <use xlink:href="#DejaVuSans-31"/>
       <use xlink:href="#DejaVuSans-2e" x="63.623047"/>
       <use xlink:href="#DejaVuSans-30" x="95.410156"/>
      </g>
     </g>
    </g>
    <g id="xtick_5">
     <g id="line2d_5">
      <g>
       <use xlink:href="#m7e8dfa8788" x="268.495829" y="303.64" style="stroke: #000000; stroke-width: 0.8"/>
      </g>
     </g>
     <g id="text_5">
      <!-- 1.5 -->
      <g transform="translate(260.544266 318.238437)scale(0.1 -0.1)">
       <use xlink:href="#DejaVuSans-31"/>
       <use xlink:href="#DejaVuSans-2e" x="63.623047"/>
       <use xlink:href="#DejaVuSans-35" x="95.410156"/>
      </g>
     </g>
    </g>
    <g id="xtick_6">
     <g id="line2d_6">
      <g>
       <use xlink:href="#m7e8dfa8788" x="318.594275" y="303.64" style="stroke: #000000; stroke-width: 0.8"/>
      </g>
     </g>
     <g id="text_6">
      <!-- 2.0 -->
      <g transform="translate(310.642712 318.238437)scale(0.1 -0.1)">
       <defs>
        <path id="DejaVuSans-32" d="M 1228 531 
L 3431 531 
L 3431 0 
L 469 0 
L 469 531 
Q 828 903 1448 1529 
Q 2069 2156 2228 2338 
Q 2531 2678 2651 2914 
Q 2772 3150 2772 3378 
Q 2772 3750 2511 3984 
Q 2250 4219 1831 4219 
Q 1534 4219 1204 4116 
Q 875 4013 500 3803 
L 500 4441 
Q 881 4594 1212 4672 
Q 1544 4750 1819 4750 
Q 2544 4750 2975 4387 
Q 3406 4025 3406 3419 
Q 3406 3131 3298 2873 
Q 3191 2616 2906 2266 
Q 2828 2175 2409 1742 
Q 1991 1309 1228 531 
z
" transform="scale(0.015625)"/>
       </defs>
       <use xlink:href="#DejaVuSans-32"/>
       <use xlink:href="#DejaVuSans-2e" x="63.623047"/>
       <use xlink:href="#DejaVuSans-30" x="95.410156"/>
      </g>
     </g>
    </g>
    <g id="text_7">
     <!-- Rotation (rad) -->
     <g transform="translate(158.653629 331.916562)scale(0.1 -0.1)">
      <defs>
       <path id="DejaVuSans-52" d="M 2841 2188 
Q 3044 2119 3236 1894 
Q 3428 1669 3622 1275 
L 4263 0 
L 3584 0 
L 2988 1197 
Q 2756 1666 2539 1819 
Q 2322 1972 1947 1972 
L 1259 1972 
L 1259 0 
L 628 0 
L 628 4666 
L 2053 4666 
Q 2853 4666 3247 4331 
Q 3641 3997 3641 3322 
Q 3641 2881 3436 2590 
Q 3231 2300 2841 2188 
z
M 1259 4147 
L 1259 2491 
L 2053 2491 
Q 2509 2491 2742 2702 
Q 2975 2913 2975 3322 
Q 2975 3731 2742 3939 
Q 2509 4147 2053 4147 
L 1259 4147 
z
" transform="scale(0.015625)"/>
       <path id="DejaVuSans-6f" d="M 1959 3097 
Q 1497 3097 1228 2736 
Q 959 2375 959 1747 
Q 959 1119 1226 758 
Q 1494 397 1959 397 
Q 2419 397 2687 759 
Q 2956 1122 2956 1747 
Q 2956 2369 2687 2733 
Q 2419 3097 1959 3097 
z
M 1959 3584 
Q 2709 3584 3137 3096 
Q 3566 2609 3566 1747 
Q 3566 888 3137 398 
Q 2709 -91 1959 -91 
Q 1206 -91 779 398 
Q 353 888 353 1747 
Q 353 2609 779 3096 
Q 1206 3584 1959 3584 
z
" transform="scale(0.015625)"/>
       <path id="DejaVuSans-74" d="M 1172 4494 
L 1172 3500 
L 2356 3500 
L 2356 3053 
L 1172 3053 
L 1172 1153 
Q 1172 725 1289 603 
Q 1406 481 1766 481 
L 2356 481 
L 2356 0 
L 1766 0 
Q 1100 0 847 248 
Q 594 497 594 1153 
L 594 3053 
L 172 3053 
L 172 3500 
L 594 3500 
L 594 4494 
L 1172 4494 
z
" transform="scale(0.015625)"/>
       <path id="DejaVuSans-61" d="M 2194 1759 
Q 1497 1759 1228 1600 
Q 959 1441 959 1056 
Q 959 750 1161 570 
Q 1363 391 1709 391 
Q 2188 391 2477 730 
Q 2766 1069 2766 1631 
L 2766 1759 
L 2194 1759 
z
M 3341 1997 
L 3341 0 
L 2766 0 
L 2766 531 
Q 2569 213 2275 61 
Q 1981 -91 1556 -91 
Q 1019 -91 701 211 
Q 384 513 384 1019 
Q 384 1609 779 1909 
Q 1175 2209 1959 2209 
L 2766 2209 
L 2766 2266 
Q 2766 2663 2505 2880 
Q 2244 3097 1772 3097 
Q 1472 3097 1187 3025 
Q 903 2953 641 2809 
L 641 3341 
Q 956 3463 1253 3523 
Q 1550 3584 1831 3584 
Q 2591 3584 2966 3190 
Q 3341 2797 3341 1997 
z
" transform="scale(0.015625)"/>
       <path id="DejaVuSans-69" d="M 603 3500 
L 1178 3500 
L 1178 0 
L 603 0 
L 603 3500 
z
M 603 4863 
L 1178 4863 
L 1178 4134 
L 603 4134 
L 603 4863 
z
" transform="scale(0.015625)"/>
       <path id="DejaVuSans-6e" d="M 3513 2113 
L 3513 0 
L 2938 0 
L 2938 2094 
Q 2938 2591 2744 2837 
Q 2550 3084 2163 3084 
Q 1697 3084 1428 2787 
Q 1159 2491 1159 1978 
L 1159 0 
L 581 0 
L 581 3500 
L 1159 3500 
L 1159 2956 
Q 1366 3272 1645 3428 
Q 1925 3584 2291 3584 
Q 2894 3584 3203 3211 
Q 3513 2838 3513 2113 
z
" transform="scale(0.015625)"/>
       <path id="DejaVuSans-20" transform="scale(0.015625)"/>
       <path id="DejaVuSans-28" d="M 1984 4856 
Q 1566 4138 1362 3434 
Q 1159 2731 1159 2009 
Q 1159 1288 1364 580 
Q 1569 -128 1984 -844 
L 1484 -844 
Q 1016 -109 783 600 
Q 550 1309 550 2009 
Q 550 2706 781 3412 
Q 1013 4119 1484 4856 
L 1984 4856 
z
" transform="scale(0.015625)"/>
       <path id="DejaVuSans-72" d="M 2631 2963 
Q 2534 3019 2420 3045 
Q 2306 3072 2169 3072 
Q 1681 3072 1420 2755 
Q 1159 2438 1159 1844 
L 1159 0 
L 581 0 
L 581 3500 
L 1159 3500 
L 1159 2956 
Q 1341 3275 1631 3429 
Q 1922 3584 2338 3584 
Q 2397 3584 2469 3576 
Q 2541 3569 2628 3553 
L 2631 2963 
z
" transform="scale(0.015625)"/>
       <path id="DejaVuSans-64" d="M 2906 2969 
L 2906 4863 
L 3481 4863 
L 3481 0 
L 2906 0 
L 2906 525 
Q 2725 213 2448 61 
Q 2172 -91 1784 -91 
Q 1150 -91 751 415 
Q 353 922 353 1747 
Q 353 2572 751 3078 
Q 1150 3584 1784 3584 
Q 2172 3584 2448 3432 
Q 2725 3281 2906 2969 
z
M 947 1747 
Q 947 1113 1208 752 
Q 1469 391 1925 391 
Q 2381 391 2643 752 
Q 2906 1113 2906 1747 
Q 2906 2381 2643 2742 
Q 2381 3103 1925 3103 
Q 1469 3103 1208 2742 
Q 947 2381 947 1747 
z
" transform="scale(0.015625)"/>
       <path id="DejaVuSans-29" d="M 513 4856 
L 1013 4856 
Q 1481 4119 1714 3412 
Q 1947 2706 1947 2009 
Q 1947 1309 1714 600 
Q 1481 -109 1013 -844 
L 513 -844 
Q 928 -128 1133 580 
Q 1338 1288 1338 2009 
Q 1338 2731 1133 3434 
Q 928 4138 513 4856 
z
" transform="scale(0.015625)"/>
      </defs>
      <use xlink:href="#DejaVuSans-52"/>
      <use xlink:href="#DejaVuSans-6f" x="64.982422"/>
      <use xlink:href="#DejaVuSans-74" x="126.164062"/>
      <use xlink:href="#DejaVuSans-61" x="165.373047"/>
      <use xlink:href="#DejaVuSans-74" x="226.652344"/>
      <use xlink:href="#DejaVuSans-69" x="265.861328"/>
      <use xlink:href="#DejaVuSans-6f" x="293.644531"/>
      <use xlink:href="#DejaVuSans-6e" x="354.826172"/>
      <use xlink:href="#DejaVuSans-20" x="418.205078"/>
      <use xlink:href="#DejaVuSans-28" x="449.992188"/>
      <use xlink:href="#DejaVuSans-72" x="489.005859"/>
      <use xlink:href="#DejaVuSans-61" x="530.119141"/>
      <use xlink:href="#DejaVuSans-64" x="591.398438"/>
      <use xlink:href="#DejaVuSans-29" x="654.875"/>
     </g>
    </g>
   </g>
   <g id="matplotlib.axis_2">
    <g id="ytick_1">
     <g id="line2d_7">
      <defs>
       <path id="m1aaf3a7b32" d="M 0 0 
L -3.5 0 
" style="stroke: #000000; stroke-width: 0.8"/>
      </defs>
      <g>
       <use xlink:href="#m1aaf3a7b32" x="68.102045" y="290.329091" style="stroke: #000000; stroke-width: 0.8"/>
      </g>
     </g>
     <g id="text_8">
      <!-- 0 -->
      <g transform="translate(54.739545 294.12831)scale(0.1 -0.1)">
       <use xlink:href="#DejaVuSans-30"/>
      </g>
     </g>
    </g>
    <g id="ytick_2">
     <g id="line2d_8">
      <g>
       <use xlink:href="#m1aaf3a7b32" x="68.102045" y="24.110909" style="stroke: #000000; stroke-width: 0.8"/>
      </g>
     </g>
     <g id="text_9">
      <!-- $\mathtt{height}$ -->
      <g transform="translate(24.902045 27.910909)scale(0.1 -0.1)">
       <defs>
        <path id="DejaVuSansMono-68" d="M 3284 2169 
L 3284 0 
L 2706 0 
L 2706 2169 
Q 2706 2641 2540 2862 
Q 2375 3084 2022 3084 
Q 1619 3084 1401 2798 
Q 1184 2513 1184 1978 
L 1184 0 
L 609 0 
L 609 4863 
L 1184 4863 
L 1184 2975 
Q 1338 3275 1600 3429 
Q 1863 3584 2222 3584 
Q 2756 3584 3020 3232 
Q 3284 2881 3284 2169 
z
" transform="scale(0.015625)"/>
        <path id="DejaVuSansMono-65" d="M 3475 1894 
L 3475 1613 
L 984 1613 
L 984 1594 
Q 984 1022 1282 709 
Q 1581 397 2125 397 
Q 2400 397 2700 484 
Q 3000 572 3341 750 
L 3341 178 
Q 3013 44 2708 -23 
Q 2403 -91 2119 -91 
Q 1303 -91 843 398 
Q 384 888 384 1747 
Q 384 2584 834 3084 
Q 1284 3584 2034 3584 
Q 2703 3584 3089 3131 
Q 3475 2678 3475 1894 
z
M 2900 2063 
Q 2888 2569 2661 2833 
Q 2434 3097 2009 3097 
Q 1594 3097 1325 2822 
Q 1056 2547 1006 2059 
L 2900 2063 
z
" transform="scale(0.015625)"/>
        <path id="DejaVuSansMono-69" d="M 800 3500 
L 2272 3500 
L 2272 447 
L 3413 447 
L 3413 0 
L 556 0 
L 556 447 
L 1697 447 
L 1697 3053 
L 800 3053 
L 800 3500 
z
M 1697 4863 
L 2272 4863 
L 2272 4134 
L 1697 4134 
L 1697 4863 
z
" transform="scale(0.015625)"/>
        <path id="DejaVuSansMono-67" d="M 2681 1778 
Q 2681 2425 2470 2761 
Q 2259 3097 1856 3097 
Q 1434 3097 1212 2761 
Q 991 2425 991 1778 
Q 991 1131 1214 792 
Q 1438 453 1863 453 
Q 2259 453 2470 793 
Q 2681 1134 2681 1778 
z
M 3256 225 
Q 3256 -563 2884 -969 
Q 2513 -1375 1791 -1375 
Q 1553 -1375 1293 -1331 
Q 1034 -1288 775 -1203 
L 775 -634 
Q 1081 -778 1331 -847 
Q 1581 -916 1791 -916 
Q 2256 -916 2468 -662 
Q 2681 -409 2681 141 
L 2681 166 
L 2681 556 
Q 2544 263 2306 119 
Q 2069 -25 1728 -25 
Q 1116 -25 750 465 
Q 384 956 384 1778 
Q 384 2603 750 3093 
Q 1116 3584 1728 3584 
Q 2066 3584 2300 3450 
Q 2534 3316 2681 3034 
L 2681 3488 
L 3256 3488 
L 3256 225 
z
" transform="scale(0.015625)"/>
        <path id="DejaVuSansMono-74" d="M 1919 4494 
L 1919 3500 
L 3225 3500 
L 3225 3053 
L 1919 3053 
L 1919 1153 
Q 1919 766 2066 612 
Q 2213 459 2578 459 
L 3225 459 
L 3225 0 
L 2522 0 
Q 1875 0 1609 259 
Q 1344 519 1344 1153 
L 1344 3053 
L 409 3053 
L 409 3500 
L 1344 3500 
L 1344 4494 
L 1919 4494 
z
" transform="scale(0.015625)"/>
       </defs>
       <use xlink:href="#DejaVuSansMono-68" transform="translate(0 0.015625)"/>
       <use xlink:href="#DejaVuSansMono-65" transform="translate(60.205078 0.015625)"/>
       <use xlink:href="#DejaVuSansMono-69" transform="translate(120.410156 0.015625)"/>
       <use xlink:href="#DejaVuSansMono-67" transform="translate(180.615234 0.015625)"/>
       <use xlink:href="#DejaVuSansMono-68" transform="translate(240.820312 0.015625)"/>
       <use xlink:href="#DejaVuSansMono-74" transform="translate(301.025391 0.015625)"/>
      </g>
     </g>
    </g>
    <g id="text_10">
     <!-- $z$ (mm) -->
     <g transform="translate(18.822357 175.12)rotate(-90)scale(0.1 -0.1)">
      <defs>
       <path id="DejaVuSans-Oblique-7a" d="M 744 3500 
L 3475 3500 
L 3372 2975 
L 738 459 
L 2913 459 
L 2822 0 
L -19 0 
L 84 525 
L 2719 3041 
L 653 3041 
L 744 3500 
z
" transform="scale(0.015625)"/>
       <path id="DejaVuSans-6d" d="M 3328 2828 
Q 3544 3216 3844 3400 
Q 4144 3584 4550 3584 
Q 5097 3584 5394 3201 
Q 5691 2819 5691 2113 
L 5691 0 
L 5113 0 
L 5113 2094 
Q 5113 2597 4934 2840 
Q 4756 3084 4391 3084 
Q 3944 3084 3684 2787 
Q 3425 2491 3425 1978 
L 3425 0 
L 2847 0 
L 2847 2094 
Q 2847 2600 2669 2842 
Q 2491 3084 2119 3084 
Q 1678 3084 1418 2786 
Q 1159 2488 1159 1978 
L 1159 0 
L 581 0 
L 581 3500 
L 1159 3500 
L 1159 2956 
Q 1356 3278 1631 3431 
Q 1906 3584 2284 3584 
Q 2666 3584 2933 3390 
Q 3200 3197 3328 2828 
z
" transform="scale(0.015625)"/>
      </defs>
      <use xlink:href="#DejaVuSans-Oblique-7a" transform="translate(0 0.125)"/>
      <use xlink:href="#DejaVuSans-20" transform="translate(52.490234 0.125)"/>
      <use xlink:href="#DejaVuSans-28" transform="translate(84.277344 0.125)"/>
      <use xlink:href="#DejaVuSans-6d" transform="translate(123.291016 0.125)"/>
      <use xlink:href="#DejaVuSans-6d" transform="translate(220.703125 0.125)"/>
      <use xlink:href="#DejaVuSans-29" transform="translate(318.115234 0.125)"/>
     </g>
    </g>
   </g>
   <g id="line2d_9">
    <path d="M 118.200491 290.329091 
L 119.971648 287.640018 
L 121.742805 284.950946 
L 123.513962 282.261873 
L 125.285119 279.572801 
L 127.056277 276.883728 
L 128.827434 274.194656 
L 130.598591 271.505583 
L 132.369748 268.816511 
L 134.140905 266.127438 
L 135.912063 263.438365 
L 137.68322 260.749293 
L 139.454377 258.06022 
L 141.225534 255.371148 
L 142.996691 252.682075 
L 144.767848 249.993003 
L 146.539006 247.30393 
L 148.310163 244.614858 
L 150.08132 241.925785 
L 151.852477 239.236713 
L 153.623634 236.54764 
L 155.394792 233.858567 
L 157.165949 231.169495 
L 158.937106 228.480422 
L 160.708263 225.79135 
L 162.47942 223.102277 
L 164.250577 220.413205 
L 166.021735 217.724132 
L 167.792892 215.03506 
L 169.564049 212.345987 
L 171.335206 209.656915 
L 173.106363 206.967842 
L 174.877521 204.27877 
L 176.648678 201.589697 
L 178.419835 198.900624 
L 180.190992 196.211552 
L 181.962149 193.522479 
L 183.733307 190.833407 
L 185.504464 188.144334 
L 187.275621 185.455262 
L 189.046778 182.766189 
L 190.817935 180.077117 
L 192.589092 177.388044 
L 194.36025 174.698972 
L 196.131407 172.009899 
L 197.902564 169.320826 
L 199.673721 166.631754 
L 201.444878 163.942681 
L 203.216036 161.253609 
L 204.987193 158.564536 
L 206.75835 155.875464 
L 208.529507 153.186391 
L 210.300664 150.497319 
L 212.071821 147.808246 
L 213.842979 145.119174 
L 215.614136 142.430101 
L 217.385293 139.741028 
L 219.15645 137.051956 
L 220.927607 134.362883 
L 222.698765 131.673811 
L 224.469922 128.984738 
L 226.241079 126.295666 
L 228.012236 123.606593 
L 229.783393 120.917521 
L 231.55455 118.228448 
L 233.325708 115.539376 
L 235.096865 112.850303 
L 236.868022 110.16123 
L 238.639179 107.472158 
L 240.410336 104.783085 
L 242.181494 102.094013 
L 243.952651 99.40494 
L 245.723808 96.715868 
L 247.494965 94.026795 
L 249.266122 91.337723 
L 251.037279 88.64865 
L 252.808437 85.959578 
L 254.579594 83.270505 
L 256.350751 80.581433 
L 258.121908 77.89236 
L 259.893065 75.203287 
L 261.664223 72.514215 
L 263.43538 69.825142 
L 265.206537 67.13607 
L 266.977694 64.446997 
L 268.748851 61.757925 
L 270.520008 59.068852 
L 272.291166 56.37978 
L 274.062323 53.690707 
L 275.83348 51.001635 
L 277.604637 48.312562 
L 279.375794 45.623489 
L 281.146952 42.934417 
L 282.918109 40.245344 
L 284.689266 37.556272 
L 286.460423 34.867199 
L 288.23158 32.178127 
L 290.002738 29.489054 
L 291.773895 26.799982 
L 293.545052 24.110909 
" clip-path="url(#pa96cbe9286)" style="fill: none; stroke: #1f77b4; stroke-width: 1.5; stroke-linecap: square"/>
   </g>
   <g id="line2d_10">
    <path d="M 118.200491 290.329091 
L 121.371533 287.640018 
L 124.491553 284.950946 
L 127.510346 282.261873 
L 130.379341 279.572801 
L 133.052374 276.883728 
L 135.486434 274.194656 
L 137.642357 271.505583 
L 139.485453 268.816511 
L 140.986065 266.127438 
L 142.12005 263.438365 
L 142.86916 260.749293 
L 143.221341 258.06022 
L 143.170928 255.371148 
L 142.718731 252.682075 
L 141.872027 249.993003 
L 140.644439 247.30393 
L 139.055719 244.614858 
L 137.13143 241.925785 
L 134.902536 239.236713 
L 132.4049 236.54764 
L 129.678709 233.858567 
L 126.76783 231.169495 
L 123.719098 228.480422 
L 120.581571 225.79135 
L 117.405731 223.102277 
L 114.242679 220.413205 
L 111.143309 217.724132 
L 108.157492 215.03506 
L 105.333271 212.345987 
L 102.716088 209.656915 
L 100.348055 206.967842 
L 98.267275 204.27877 
L 96.507227 201.589697 
L 95.096232 198.900624 
L 94.056994 196.211552 
L 93.406233 193.522479 
L 93.154421 190.833407 
L 93.305609 188.144334 
L 93.857366 185.455262 
L 94.800813 182.766189 
L 96.120769 180.077117 
L 97.795996 177.388044 
L 99.799539 174.698972 
L 102.099161 172.009899 
L 104.657858 169.320826 
L 107.434462 166.631754 
L 110.384295 163.942681 
L 113.459894 161.253609 
L 116.611771 158.564536 
L 119.789211 155.875464 
L 122.941087 153.186391 
L 126.016686 150.497319 
L 128.966519 147.808246 
L 131.743123 145.119174 
L 134.301821 142.430101 
L 136.601442 139.741028 
L 138.604985 137.051956 
L 140.280213 134.362883 
L 141.600169 131.673811 
L 142.543615 128.984738 
L 143.095372 126.295666 
L 143.246561 123.606593 
L 142.994749 120.917521 
L 142.343988 118.228448 
L 141.304749 115.539376 
L 139.893754 112.850303 
L 138.133707 110.16123 
L 136.052926 107.472158 
L 133.684893 104.783085 
L 131.06771 102.094013 
L 128.243489 99.40494 
L 125.257672 96.715868 
L 122.158303 94.026795 
L 118.995251 91.337723 
L 115.819411 88.64865 
L 112.681883 85.959578 
L 109.633152 83.270505 
L 106.722272 80.581433 
L 103.996082 77.89236 
L 101.498445 75.203287 
L 99.269551 72.514215 
L 97.345263 69.825142 
L 95.756543 67.13607 
L 94.528954 64.446997 
L 93.68225 61.757925 
L 93.230053 59.068852 
L 93.17964 56.37978 
L 93.531822 53.690707 
L 94.280932 51.001635 
L 95.414916 48.312562 
L 96.915529 45.623489 
L 98.758625 42.934417 
L 100.914548 40.245344 
L 103.348608 37.556272 
L 106.02164 34.867199 
L 108.890635 32.178127 
L 111.909429 29.489054 
L 115.029448 26.799982 
L 118.200491 24.110909 
" clip-path="url(#pa96cbe9286)" style="fill: none; stroke: #ff7f0e; stroke-width: 1.5; stroke-linecap: square"/>
   </g>
   <g id="line2d_11">
    <path d="M 118.200491 290.329091 
L 123.142691 287.640018 
L 128.033867 284.950946 
L 132.823818 282.261873 
L 137.46397 279.572801 
L 141.90816 276.883728 
L 146.113377 274.194656 
L 150.040457 271.505583 
L 153.65471 268.816511 
L 156.92648 266.127438 
L 159.831622 263.438365 
L 162.351889 260.749293 
L 164.475228 258.06022 
L 166.195972 255.371148 
L 167.514932 252.682075 
L 168.439385 249.993003 
L 168.982954 247.30393 
L 169.165391 244.614858 
L 169.01226 241.925785 
L 168.554523 239.236713 
L 167.828043 236.54764 
L 166.87301 233.858567 
L 165.733288 231.169495 
L 164.455714 228.480422 
L 163.089343 225.79135 
L 161.68466 223.102277 
L 160.292765 220.413205 
L 158.964553 217.724132 
L 157.749893 215.03506 
L 156.696829 212.345987 
L 155.850804 209.656915 
L 155.253928 206.967842 
L 154.944305 204.27877 
L 154.955414 201.589697 
L 155.315577 198.900624 
L 156.047495 196.211552 
L 157.167891 193.522479 
L 158.687236 190.833407 
L 160.609582 188.144334 
L 162.932496 185.455262 
L 165.6471 182.766189 
L 168.738213 180.077117 
L 172.184598 177.388044 
L 175.959298 174.698972 
L 180.030077 172.009899 
L 184.359932 169.320826 
L 188.907693 166.631754 
L 193.628683 163.942681 
L 198.475439 161.253609 
L 203.398473 158.564536 
L 208.34707 155.875464 
L 213.270104 153.186391 
L 218.11686 150.497319 
L 222.83785 147.808246 
L 227.385611 145.119174 
L 231.715466 142.430101 
L 235.786245 139.741028 
L 239.560945 137.051956 
L 243.007329 134.362883 
L 246.098443 131.673811 
L 248.813046 128.984738 
L 251.13596 126.295666 
L 253.058306 123.606593 
L 254.577651 120.917521 
L 255.698048 118.228448 
L 256.429966 115.539376 
L 256.790128 112.850303 
L 256.801238 110.16123 
L 256.491614 107.472158 
L 255.894739 104.783085 
L 255.048713 102.094013 
L 253.995649 99.40494 
L 252.78099 96.715868 
L 251.452777 94.026795 
L 250.060882 91.337723 
L 248.656199 88.64865 
L 247.289829 85.959578 
L 246.012255 83.270505 
L 244.872533 80.581433 
L 243.917499 77.89236 
L 243.19102 75.203287 
L 242.733283 72.514215 
L 242.580152 69.825142 
L 242.762589 67.13607 
L 243.306158 64.446997 
L 244.230611 61.757925 
L 245.549571 59.068852 
L 247.270315 56.37978 
L 249.393654 53.690707 
L 251.913921 51.001635 
L 254.819063 48.312562 
L 258.090833 45.623489 
L 261.705086 42.934417 
L 265.632166 40.245344 
L 269.837383 37.556272 
L 274.281573 34.867199 
L 278.921725 32.178127 
L 283.711676 29.489054 
L 288.602852 26.799982 
L 293.545052 24.110909 
" clip-path="url(#pa96cbe9286)" style="fill: none; stroke: #2ca02c; stroke-width: 1.5; stroke-linecap: square"/>
   </g>
   <g id="LineCollection_1">
    <path d="M 293.545052 290.329091 
L 293.545052 24.110909 
" clip-path="url(#pa96cbe9286)" style="fill: none; stroke-dasharray: 1.5,2.475; stroke-dashoffset: 0; stroke: #1f77b4; stroke-width: 1.5"/>
   </g>
   <g id="LineCollection_2">
    <path d="M 93.151268 191.828364 
L 93.151268 56.057091 
" clip-path="url(#pa96cbe9286)" style="fill: none; stroke-dasharray: 5.55,2.4; stroke-dashoffset: 0; stroke: #ff7f0e; stroke-width: 1.5"/>
   </g>
   <g id="LineCollection_3">
    <path d="M 93.151268 56.057091 
L 118.200491 56.057091 
" clip-path="url(#pa96cbe9286)" style="fill: none; stroke-dasharray: 1.5,2.475; stroke-dashoffset: 0; stroke: #ff7f0e; stroke-width: 1.5"/>
   </g>
   <g id="patch_3">
    <path d="M 68.102045 303.64 
L 68.102045 10.8 
" style="fill: none; stroke: #000000; stroke-width: 0.8; stroke-linejoin: miter; stroke-linecap: square"/>
   </g>
   <g id="patch_4">
    <path d="M 318.594275 303.64 
L 318.594275 10.8 
" style="fill: none; stroke: #000000; stroke-width: 0.8; stroke-linejoin: miter; stroke-linecap: square"/>
   </g>
   <g id="patch_5">
    <path d="M 68.102045 303.64 
L 318.594275 303.64 
" style="fill: none; stroke: #000000; stroke-width: 0.8; stroke-linejoin: miter; stroke-linecap: square"/>
   </g>
   <g id="patch_6">
    <path d="M 68.102045 10.8 
L 318.594275 10.8 
" style="fill: none; stroke: #000000; stroke-width: 0.8; stroke-linejoin: miter; stroke-linecap: square"/>
   </g>
   <g id="legend_1">
    <g id="patch_7">
     <path d="M 325.594275 203.337188 
L 447.994275 203.337188 
Q 449.994275 203.337188 449.994275 201.337188 
L 449.994275 113.102813 
Q 449.994275 111.102813 447.994275 111.102813 
L 325.594275 111.102813 
Q 323.594275 111.102813 323.594275 113.102813 
L 323.594275 201.337188 
Q 323.594275 203.337188 325.594275 203.337188 
z
" style="fill: #ffffff; opacity: 0.8; stroke: #cccccc; stroke-linejoin: miter"/>
    </g>
    <g id="line2d_12">
     <path d="M 327.594275 119.20125 
L 337.594275 119.20125 
L 347.594275 119.20125 
" style="fill: none; stroke: #1f77b4; stroke-width: 1.5; stroke-linecap: square"/>
    </g>
    <g id="text_11">
     <!-- Linear Twist -->
     <g transform="translate(355.594275 122.70125)scale(0.1 -0.1)">
      <defs>
       <path id="DejaVuSans-4c" d="M 628 4666 
L 1259 4666 
L 1259 531 
L 3531 531 
L 3531 0 
L 628 0 
L 628 4666 
z
" transform="scale(0.015625)"/>
       <path id="DejaVuSans-65" d="M 3597 1894 
L 3597 1613 
L 953 1613 
Q 991 1019 1311 708 
Q 1631 397 2203 397 
Q 2534 397 2845 478 
Q 3156 559 3463 722 
L 3463 178 
Q 3153 47 2828 -22 
Q 2503 -91 2169 -91 
Q 1331 -91 842 396 
Q 353 884 353 1716 
Q 353 2575 817 3079 
Q 1281 3584 2069 3584 
Q 2775 3584 3186 3129 
Q 3597 2675 3597 1894 
z
M 3022 2063 
Q 3016 2534 2758 2815 
Q 2500 3097 2075 3097 
Q 1594 3097 1305 2825 
Q 1016 2553 972 2059 
L 3022 2063 
z
" transform="scale(0.015625)"/>
       <path id="DejaVuSans-54" d="M -19 4666 
L 3928 4666 
L 3928 4134 
L 2272 4134 
L 2272 0 
L 1638 0 
L 1638 4134 
L -19 4134 
L -19 4666 
z
" transform="scale(0.015625)"/>
       <path id="DejaVuSans-77" d="M 269 3500 
L 844 3500 
L 1563 769 
L 2278 3500 
L 2956 3500 
L 3675 769 
L 4391 3500 
L 4966 3500 
L 4050 0 
L 3372 0 
L 2619 2869 
L 1863 0 
L 1184 0 
L 269 3500 
z
" transform="scale(0.015625)"/>
       <path id="DejaVuSans-73" d="M 2834 3397 
L 2834 2853 
Q 2591 2978 2328 3040 
Q 2066 3103 1784 3103 
Q 1356 3103 1142 2972 
Q 928 2841 928 2578 
Q 928 2378 1081 2264 
Q 1234 2150 1697 2047 
L 1894 2003 
Q 2506 1872 2764 1633 
Q 3022 1394 3022 966 
Q 3022 478 2636 193 
Q 2250 -91 1575 -91 
Q 1294 -91 989 -36 
Q 684 19 347 128 
L 347 722 
Q 666 556 975 473 
Q 1284 391 1588 391 
Q 1994 391 2212 530 
Q 2431 669 2431 922 
Q 2431 1156 2273 1281 
Q 2116 1406 1581 1522 
L 1381 1569 
Q 847 1681 609 1914 
Q 372 2147 372 2553 
Q 372 3047 722 3315 
Q 1072 3584 1716 3584 
Q 2034 3584 2315 3537 
Q 2597 3491 2834 3397 
z
" transform="scale(0.015625)"/>
      </defs>
      <use xlink:href="#DejaVuSans-4c"/>
      <use xlink:href="#DejaVuSans-69" x="55.712891"/>
      <use xlink:href="#DejaVuSans-6e" x="83.496094"/>
      <use xlink:href="#DejaVuSans-65" x="146.875"/>
      <use xlink:href="#DejaVuSans-61" x="208.398438"/>
      <use xlink:href="#DejaVuSans-72" x="269.677734"/>
      <use xlink:href="#DejaVuSans-20" x="310.791016"/>
      <use xlink:href="#DejaVuSans-54" x="342.578125"/>
      <use xlink:href="#DejaVuSans-77" x="387.162109"/>
      <use xlink:href="#DejaVuSans-69" x="468.949219"/>
      <use xlink:href="#DejaVuSans-73" x="496.732422"/>
      <use xlink:href="#DejaVuSans-74" x="548.832031"/>
     </g>
    </g>
    <g id="line2d_13">
     <path d="M 327.594275 133.879375 
L 337.594275 133.879375 
L 347.594275 133.879375 
" style="fill: none; stroke: #ff7f0e; stroke-width: 1.5; stroke-linecap: square"/>
    </g>
    <g id="text_12">
     <!-- Oscillating Twist -->
     <g transform="translate(355.594275 137.379375)scale(0.1 -0.1)">
      <defs>
       <path id="DejaVuSans-4f" d="M 2522 4238 
Q 1834 4238 1429 3725 
Q 1025 3213 1025 2328 
Q 1025 1447 1429 934 
Q 1834 422 2522 422 
Q 3209 422 3611 934 
Q 4013 1447 4013 2328 
Q 4013 3213 3611 3725 
Q 3209 4238 2522 4238 
z
M 2522 4750 
Q 3503 4750 4090 4092 
Q 4678 3434 4678 2328 
Q 4678 1225 4090 567 
Q 3503 -91 2522 -91 
Q 1538 -91 948 565 
Q 359 1222 359 2328 
Q 359 3434 948 4092 
Q 1538 4750 2522 4750 
z
" transform="scale(0.015625)"/>
       <path id="DejaVuSans-63" d="M 3122 3366 
L 3122 2828 
Q 2878 2963 2633 3030 
Q 2388 3097 2138 3097 
Q 1578 3097 1268 2742 
Q 959 2388 959 1747 
Q 959 1106 1268 751 
Q 1578 397 2138 397 
Q 2388 397 2633 464 
Q 2878 531 3122 666 
L 3122 134 
Q 2881 22 2623 -34 
Q 2366 -91 2075 -91 
Q 1284 -91 818 406 
Q 353 903 353 1747 
Q 353 2603 823 3093 
Q 1294 3584 2113 3584 
Q 2378 3584 2631 3529 
Q 2884 3475 3122 3366 
z
" transform="scale(0.015625)"/>
       <path id="DejaVuSans-6c" d="M 603 4863 
L 1178 4863 
L 1178 0 
L 603 0 
L 603 4863 
z
" transform="scale(0.015625)"/>
       <path id="DejaVuSans-67" d="M 2906 1791 
Q 2906 2416 2648 2759 
Q 2391 3103 1925 3103 
Q 1463 3103 1205 2759 
Q 947 2416 947 1791 
Q 947 1169 1205 825 
Q 1463 481 1925 481 
Q 2391 481 2648 825 
Q 2906 1169 2906 1791 
z
M 3481 434 
Q 3481 -459 3084 -895 
Q 2688 -1331 1869 -1331 
Q 1566 -1331 1297 -1286 
Q 1028 -1241 775 -1147 
L 775 -588 
Q 1028 -725 1275 -790 
Q 1522 -856 1778 -856 
Q 2344 -856 2625 -561 
Q 2906 -266 2906 331 
L 2906 616 
Q 2728 306 2450 153 
Q 2172 0 1784 0 
Q 1141 0 747 490 
Q 353 981 353 1791 
Q 353 2603 747 3093 
Q 1141 3584 1784 3584 
Q 2172 3584 2450 3431 
Q 2728 3278 2906 2969 
L 2906 3500 
L 3481 3500 
L 3481 434 
z
" transform="scale(0.015625)"/>
      </defs>
      <use xlink:href="#DejaVuSans-4f"/>
      <use xlink:href="#DejaVuSans-73" x="78.710938"/>
      <use xlink:href="#DejaVuSans-63" x="130.810547"/>
      <use xlink:href="#DejaVuSans-69" x="185.791016"/>
      <use xlink:href="#DejaVuSans-6c" x="213.574219"/>
      <use xlink:href="#DejaVuSans-6c" x="241.357422"/>
      <use xlink:href="#DejaVuSans-61" x="269.140625"/>
      <use xlink:href="#DejaVuSans-74" x="330.419922"/>
      <use xlink:href="#DejaVuSans-69" x="369.628906"/>
      <use xlink:href="#DejaVuSans-6e" x="397.412109"/>
      <use xlink:href="#DejaVuSans-67" x="460.791016"/>
      <use xlink:href="#DejaVuSans-20" x="524.267578"/>
      <use xlink:href="#DejaVuSans-54" x="556.054688"/>
      <use xlink:href="#DejaVuSans-77" x="600.638672"/>
      <use xlink:href="#DejaVuSans-69" x="682.425781"/>
      <use xlink:href="#DejaVuSans-73" x="710.208984"/>
      <use xlink:href="#DejaVuSans-74" x="762.308594"/>
     </g>
    </g>
    <g id="line2d_14">
     <path d="M 327.594275 148.5575 
L 337.594275 148.5575 
L 347.594275 148.5575 
" style="fill: none; stroke: #2ca02c; stroke-width: 1.5; stroke-linecap: square"/>
    </g>
    <g id="text_13">
     <!-- Combined Twist -->
     <g transform="translate(355.594275 152.0575)scale(0.1 -0.1)">
      <defs>
       <path id="DejaVuSans-43" d="M 4122 4306 
L 4122 3641 
Q 3803 3938 3442 4084 
Q 3081 4231 2675 4231 
Q 1875 4231 1450 3742 
Q 1025 3253 1025 2328 
Q 1025 1406 1450 917 
Q 1875 428 2675 428 
Q 3081 428 3442 575 
Q 3803 722 4122 1019 
L 4122 359 
Q 3791 134 3420 21 
Q 3050 -91 2638 -91 
Q 1578 -91 968 557 
Q 359 1206 359 2328 
Q 359 3453 968 4101 
Q 1578 4750 2638 4750 
Q 3056 4750 3426 4639 
Q 3797 4528 4122 4306 
z
" transform="scale(0.015625)"/>
       <path id="DejaVuSans-62" d="M 3116 1747 
Q 3116 2381 2855 2742 
Q 2594 3103 2138 3103 
Q 1681 3103 1420 2742 
Q 1159 2381 1159 1747 
Q 1159 1113 1420 752 
Q 1681 391 2138 391 
Q 2594 391 2855 752 
Q 3116 1113 3116 1747 
z
M 1159 2969 
Q 1341 3281 1617 3432 
Q 1894 3584 2278 3584 
Q 2916 3584 3314 3078 
Q 3713 2572 3713 1747 
Q 3713 922 3314 415 
Q 2916 -91 2278 -91 
Q 1894 -91 1617 61 
Q 1341 213 1159 525 
L 1159 0 
L 581 0 
L 581 4863 
L 1159 4863 
L 1159 2969 
z
" transform="scale(0.015625)"/>
      </defs>
      <use xlink:href="#DejaVuSans-43"/>
      <use xlink:href="#DejaVuSans-6f" x="69.824219"/>
      <use xlink:href="#DejaVuSans-6d" x="131.005859"/>
      <use xlink:href="#DejaVuSans-62" x="228.417969"/>
      <use xlink:href="#DejaVuSans-69" x="291.894531"/>
      <use xlink:href="#DejaVuSans-6e" x="319.677734"/>
      <use xlink:href="#DejaVuSans-65" x="383.056641"/>
      <use xlink:href="#DejaVuSans-64" x="444.580078"/>
      <use xlink:href="#DejaVuSans-20" x="508.056641"/>
      <use xlink:href="#DejaVuSans-54" x="539.84375"/>
      <use xlink:href="#DejaVuSans-77" x="584.427734"/>
      <use xlink:href="#DejaVuSans-69" x="666.214844"/>
      <use xlink:href="#DejaVuSans-73" x="693.998047"/>
      <use xlink:href="#DejaVuSans-74" x="746.097656"/>
     </g>
    </g>
    <g id="line2d_15">
     <path d="M 327.594275 163.337188 
L 347.594275 163.337188 
" style="fill: none; stroke-dasharray: 1.5,2.475; stroke-dashoffset: 0; stroke: #1f77b4; stroke-width: 1.5"/>
    </g>
    <g id="text_14">
     <!-- $\mathtt{twist\_linear}$ -->
     <g transform="translate(355.594275 166.837188)scale(0.1 -0.1)">
      <defs>
       <path id="DejaVuSansMono-77" d="M 0 3500 
L 569 3500 
L 1178 672 
L 1678 2478 
L 2169 2478 
L 2675 672 
L 3284 3500 
L 3853 3500 
L 3034 0 
L 2484 0 
L 1925 1919 
L 1369 0 
L 819 0 
L 0 3500 
z
" transform="scale(0.015625)"/>
       <path id="DejaVuSansMono-73" d="M 3041 3378 
L 3041 2816 
Q 2794 2959 2544 3031 
Q 2294 3103 2034 3103 
Q 1644 3103 1451 2976 
Q 1259 2850 1259 2591 
Q 1259 2356 1403 2240 
Q 1547 2125 2119 2016 
L 2350 1972 
Q 2778 1891 2998 1647 
Q 3219 1403 3219 1013 
Q 3219 494 2850 201 
Q 2481 -91 1825 -91 
Q 1566 -91 1281 -36 
Q 997 19 666 128 
L 666 722 
Q 988 556 1281 473 
Q 1575 391 1838 391 
Q 2219 391 2428 545 
Q 2638 700 2638 978 
Q 2638 1378 1872 1531 
L 1847 1538 
L 1631 1581 
Q 1134 1678 906 1908 
Q 678 2138 678 2534 
Q 678 3038 1018 3311 
Q 1359 3584 1991 3584 
Q 2272 3584 2531 3532 
Q 2791 3481 3041 3378 
z
" transform="scale(0.015625)"/>
       <path id="DejaVuSansMono-5f" d="M 3853 -1259 
L 3853 -1509 
L 0 -1509 
L 0 -1259 
L 3853 -1259 
z
" transform="scale(0.015625)"/>
       <path id="DejaVuSansMono-6c" d="M 1997 1269 
Q 1997 881 2139 684 
Q 2281 488 2559 488 
L 3231 488 
L 3231 0 
L 2503 0 
Q 1988 0 1705 331 
Q 1422 663 1422 1269 
L 1422 4447 
L 500 4447 
L 500 4897 
L 1997 4897 
L 1997 1269 
z
" transform="scale(0.015625)"/>
       <path id="DejaVuSansMono-6e" d="M 3284 2169 
L 3284 0 
L 2706 0 
L 2706 2169 
Q 2706 2641 2540 2862 
Q 2375 3084 2022 3084 
Q 1619 3084 1401 2798 
Q 1184 2513 1184 1978 
L 1184 0 
L 609 0 
L 609 3500 
L 1184 3500 
L 1184 2975 
Q 1338 3275 1600 3429 
Q 1863 3584 2222 3584 
Q 2756 3584 3020 3232 
Q 3284 2881 3284 2169 
z
" transform="scale(0.015625)"/>
       <path id="DejaVuSansMono-61" d="M 2194 1759 
L 2003 1759 
Q 1500 1759 1245 1582 
Q 991 1406 991 1056 
Q 991 741 1181 566 
Q 1372 391 1709 391 
Q 2184 391 2456 720 
Q 2728 1050 2731 1631 
L 2731 1759 
L 2194 1759 
z
M 3309 1997 
L 3309 0 
L 2731 0 
L 2731 519 
Q 2547 206 2267 57 
Q 1988 -91 1588 -91 
Q 1053 -91 734 211 
Q 416 513 416 1019 
Q 416 1603 808 1906 
Q 1200 2209 1959 2209 
L 2731 2209 
L 2731 2300 
Q 2728 2719 2518 2908 
Q 2309 3097 1850 3097 
Q 1556 3097 1256 3012 
Q 956 2928 672 2766 
L 672 3341 
Q 991 3463 1283 3523 
Q 1575 3584 1850 3584 
Q 2284 3584 2592 3456 
Q 2900 3328 3091 3072 
Q 3209 2916 3259 2686 
Q 3309 2456 3309 1997 
z
" transform="scale(0.015625)"/>
       <path id="DejaVuSansMono-72" d="M 3609 2778 
Q 3425 2922 3234 2987 
Q 3044 3053 2816 3053 
Q 2278 3053 1993 2715 
Q 1709 2378 1709 1741 
L 1709 0 
L 1131 0 
L 1131 3500 
L 1709 3500 
L 1709 2816 
Q 1853 3188 2151 3386 
Q 2450 3584 2859 3584 
Q 3072 3584 3256 3531 
Q 3441 3478 3609 3366 
L 3609 2778 
z
" transform="scale(0.015625)"/>
      </defs>
      <use xlink:href="#DejaVuSansMono-74" transform="translate(0 0.484375)"/>
      <use xlink:href="#DejaVuSansMono-77" transform="translate(60.205078 0.484375)"/>
      <use xlink:href="#DejaVuSansMono-69" transform="translate(120.410156 0.484375)"/>
      <use xlink:href="#DejaVuSansMono-73" transform="translate(180.615234 0.484375)"/>
      <use xlink:href="#DejaVuSansMono-74" transform="translate(240.820312 0.484375)"/>
      <use xlink:href="#DejaVuSansMono-5f" transform="translate(301.025391 0.484375)"/>
      <use xlink:href="#DejaVuSansMono-6c" transform="translate(361.230469 0.484375)"/>
      <use xlink:href="#DejaVuSansMono-69" transform="translate(421.435547 0.484375)"/>
      <use xlink:href="#DejaVuSansMono-6e" transform="translate(481.640625 0.484375)"/>
      <use xlink:href="#DejaVuSansMono-65" transform="translate(541.845703 0.484375)"/>
      <use xlink:href="#DejaVuSansMono-61" transform="translate(602.050781 0.484375)"/>
      <use xlink:href="#DejaVuSansMono-72" transform="translate(662.255859 0.484375)"/>
     </g>
    </g>
    <g id="line2d_16">
     <path d="M 327.594275 178.337188 
L 347.594275 178.337188 
" style="fill: none; stroke-dasharray: 5.55,2.4; stroke-dashoffset: 0; stroke: #ff7f0e; stroke-width: 1.5"/>
    </g>
    <g id="text_15">
     <!-- $\mathtt{twist\_period}$ -->
     <g transform="translate(355.594275 181.837188)scale(0.1 -0.1)">
      <defs>
       <path id="DejaVuSansMono-70" d="M 1172 441 
L 1172 -1331 
L 594 -1331 
L 594 3500 
L 1172 3500 
L 1172 3053 
Q 1316 3313 1555 3448 
Q 1794 3584 2106 3584 
Q 2741 3584 3102 3093 
Q 3463 2603 3463 1734 
Q 3463 881 3100 395 
Q 2738 -91 2106 -91 
Q 1788 -91 1548 45 
Q 1309 181 1172 441 
z
M 2859 1747 
Q 2859 2416 2648 2756 
Q 2438 3097 2022 3097 
Q 1603 3097 1387 2755 
Q 1172 2413 1172 1747 
Q 1172 1084 1387 740 
Q 1603 397 2022 397 
Q 2438 397 2648 737 
Q 2859 1078 2859 1747 
z
" transform="scale(0.015625)"/>
       <path id="DejaVuSansMono-6f" d="M 1925 3097 
Q 1488 3097 1263 2756 
Q 1038 2416 1038 1747 
Q 1038 1081 1263 739 
Q 1488 397 1925 397 
Q 2366 397 2591 739 
Q 2816 1081 2816 1747 
Q 2816 2416 2591 2756 
Q 2366 3097 1925 3097 
z
M 1925 3584 
Q 2653 3584 3039 3112 
Q 3425 2641 3425 1747 
Q 3425 850 3040 379 
Q 2656 -91 1925 -91 
Q 1197 -91 812 379 
Q 428 850 428 1747 
Q 428 2641 812 3112 
Q 1197 3584 1925 3584 
z
" transform="scale(0.015625)"/>
       <path id="DejaVuSansMono-64" d="M 2681 3053 
L 2681 4863 
L 3256 4863 
L 3256 0 
L 2681 0 
L 2681 441 
Q 2538 181 2298 45 
Q 2059 -91 1747 -91 
Q 1113 -91 748 401 
Q 384 894 384 1759 
Q 384 2613 750 3098 
Q 1116 3584 1747 3584 
Q 2063 3584 2303 3448 
Q 2544 3313 2681 3053 
z
M 991 1747 
Q 991 1078 1203 737 
Q 1416 397 1831 397 
Q 2247 397 2464 740 
Q 2681 1084 2681 1747 
Q 2681 2413 2464 2755 
Q 2247 3097 1831 3097 
Q 1416 3097 1203 2756 
Q 991 2416 991 1747 
z
" transform="scale(0.015625)"/>
      </defs>
      <use xlink:href="#DejaVuSansMono-74" transform="translate(0 0.015625)"/>
      <use xlink:href="#DejaVuSansMono-77" transform="translate(60.205078 0.015625)"/>
      <use xlink:href="#DejaVuSansMono-69" transform="translate(120.410156 0.015625)"/>
      <use xlink:href="#DejaVuSansMono-73" transform="translate(180.615234 0.015625)"/>
      <use xlink:href="#DejaVuSansMono-74" transform="translate(240.820312 0.015625)"/>
      <use xlink:href="#DejaVuSansMono-5f" transform="translate(301.025391 0.015625)"/>
      <use xlink:href="#DejaVuSansMono-70" transform="translate(361.230469 0.015625)"/>
      <use xlink:href="#DejaVuSansMono-65" transform="translate(421.435547 0.015625)"/>
      <use xlink:href="#DejaVuSansMono-72" transform="translate(481.640625 0.015625)"/>
      <use xlink:href="#DejaVuSansMono-69" transform="translate(541.845703 0.015625)"/>
      <use xlink:href="#DejaVuSansMono-6f" transform="translate(602.050781 0.015625)"/>
      <use xlink:href="#DejaVuSansMono-64" transform="translate(662.255859 0.015625)"/>
     </g>
    </g>
    <g id="line2d_17">
     <path d="M 327.594275 193.437188 
L 347.594275 193.437188 
" style="fill: none; stroke-dasharray: 1.5,2.475; stroke-dashoffset: 0; stroke: #ff7f0e; stroke-width: 1.5"/>
    </g>
    <g id="text_16">
     <!-- $\mathtt{twist\_amplitude}$ -->
     <g transform="translate(355.594275 196.937188)scale(0.1 -0.1)">
      <defs>
       <path id="DejaVuSansMono-6d" d="M 2113 3144 
Q 2219 3369 2383 3476 
Q 2547 3584 2778 3584 
Q 3200 3584 3373 3257 
Q 3547 2931 3547 2028 
L 3547 0 
L 3022 0 
L 3022 2003 
Q 3022 2744 2939 2923 
Q 2856 3103 2638 3103 
Q 2388 3103 2295 2911 
Q 2203 2719 2203 2003 
L 2203 0 
L 1678 0 
L 1678 2003 
Q 1678 2753 1589 2928 
Q 1500 3103 1269 3103 
Q 1041 3103 952 2911 
Q 863 2719 863 2003 
L 863 0 
L 341 0 
L 341 3500 
L 863 3500 
L 863 3200 
Q 966 3388 1120 3486 
Q 1275 3584 1472 3584 
Q 1709 3584 1867 3475 
Q 2025 3366 2113 3144 
z
" transform="scale(0.015625)"/>
       <path id="DejaVuSansMono-75" d="M 609 1325 
L 609 3494 
L 1184 3494 
L 1184 1325 
Q 1184 853 1351 631 
Q 1519 409 1869 409 
Q 2275 409 2490 695 
Q 2706 981 2706 1516 
L 2706 3494 
L 3284 3494 
L 3284 0 
L 2706 0 
L 2706 525 
Q 2553 222 2289 65 
Q 2025 -91 1672 -91 
Q 1134 -91 871 261 
Q 609 613 609 1325 
z
" transform="scale(0.015625)"/>
      </defs>
      <use xlink:href="#DejaVuSansMono-74" transform="translate(0 0.484375)"/>
      <use xlink:href="#DejaVuSansMono-77" transform="translate(60.205078 0.484375)"/>
      <use xlink:href="#DejaVuSansMono-69" transform="translate(120.410156 0.484375)"/>
      <use xlink:href="#DejaVuSansMono-73" transform="translate(180.615234 0.484375)"/>
      <use xlink:href="#DejaVuSansMono-74" transform="translate(240.820312 0.484375)"/>
      <use xlink:href="#DejaVuSansMono-5f" transform="translate(301.025391 0.484375)"/>
      <use xlink:href="#DejaVuSansMono-61" transform="translate(361.230469 0.484375)"/>
      <use xlink:href="#DejaVuSansMono-6d" transform="translate(421.435547 0.484375)"/>
      <use xlink:href="#DejaVuSansMono-70" transform="translate(481.640625 0.484375)"/>
      <use xlink:href="#DejaVuSansMono-6c" transform="translate(541.845703 0.484375)"/>
      <use xlink:href="#DejaVuSansMono-69" transform="translate(602.050781 0.484375)"/>
      <use xlink:href="#DejaVuSansMono-74" transform="translate(662.255859 0.484375)"/>
      <use xlink:href="#DejaVuSansMono-75" transform="translate(722.460938 0.484375)"/>
      <use xlink:href="#DejaVuSansMono-64" transform="translate(782.666016 0.484375)"/>
      <use xlink:href="#DejaVuSansMono-65" transform="translate(842.871094 0.484375)"/>
     </g>
    </g>
   </g>
  </g>
 </g>
 <defs>
  <clipPath id="pa96cbe9286">
   <rect x="68.102045" y="10.8" width="250.49223" height="292.84"/>
  </clipPath>
 </defs>
</svg>
