<?xml version="1.0" encoding="utf-8" standalone="no"?>
<!DOCTYPE svg PUBLIC "-//W3C//DTD SVG 1.1//EN"
  "http://www.w3.org/Graphics/SVG/1.1/DTD/svg11.dtd">
<svg xmlns:xlink="http://www.w3.org/1999/xlink" width="460.8pt" height="345.6pt" viewBox="0 0 460.8 345.6" xmlns="http://www.w3.org/2000/svg" version="1.1">
 <metadata>
  <rdf:RDF xmlns:dc="http://purl.org/dc/elements/1.1/" xmlns:cc="http://creativecommons.org/ns#" xmlns:rdf="http://www.w3.org/1999/02/22-rdf-syntax-ns#">
   <cc:Work>
    <dc:type rdf:resource="http://purl.org/dc/dcmitype/StillImage"/>
    <dc:date>2023-09-10T15:29:26.189532</dc:date>
    <dc:format>image/svg+xml</dc:format>
    <dc:creator>
     <cc:Agent>
      <dc:title>Matplotlib v3.5.1, https://matplotlib.org/</dc:title>
     </cc:Agent>
    </dc:creator>
   </cc:Work>
  </rdf:RDF>
 </metadata>
 <defs>
  <style type="text/css">*{stroke-linejoin: round; stroke-linecap: butt}</style>
 </defs>
 <g id="figure_1">
  <g id="patch_1">
   <path d="M 0 345.6 
L 460.8 345.6 
L 460.8 0 
L 0 0 
z
" style="fill: #ffffff"/>
  </g>
  <g id="axes_1">
   <g id="patch_2">
    <path d="M 68.102045 303.64 
L 328.855 303.64 
L 328.855 10.8 
L 68.102045 10.8 
z
" style="fill: #ffffff"/>
   </g>
   <g id="matplotlib.axis_1">
    <g id="xtick_1">
     <g id="line2d_1">
      <defs>
       <path id="m8153e1aa78" d="M 0 0 
L 0 3.5 
" style="stroke: #000000; stroke-width: 0.8"/>
      </defs>
      <g>
       <use xlink:href="#m8153e1aa78" x="68.102045" y="303.64" style="stroke: #000000; stroke-width: 0.8"/>
      </g>
     </g>
     <g id="text_1">
      <!-- −0.5 -->
      <g transform="translate(55.960638 318.238437)scale(0.1 -0.1)">
       <defs>
        <path id="DejaVuSans-2212" d="M 678 2272 
L 4684 2272 
L 4684 1741 
L 678 1741 
L 678 2272 
z
" transform="scale(0.015625)"/>
        <path id="DejaVuSans-30" d="M 2034 4250 
Q 1547 4250 1301 3770 
Q 1056 3291 1056 2328 
Q 1056 1369 1301 889 
Q 1547 409 2034 409 
Q 2525 409 2770 889 
Q 3016 1369 3016 2328 
Q 3016 3291 2770 3770 
Q 2525 4250 2034 4250 
z
M 2034 4750 
Q 2819 4750 3233 4129 
Q 3647 3509 3647 2328 
Q 3647 1150 3233 529 
Q 2819 -91 2034 -91 
Q 1250 -91 836 529 
Q 422 1150 422 2328 
Q 422 3509 836 4129 
Q 1250 4750 2034 4750 
z
" transform="scale(0.015625)"/>
        <path id="DejaVuSans-2e" d="M 684 794 
L 1344 794 
L 1344 0 
L 684 0 
L 684 794 
z
" transform="scale(0.015625)"/>
        <path id="DejaVuSans-35" d="M 691 4666 
L 3169 4666 
L 3169 4134 
L 1269 4134 
L 1269 2991 
Q 1406 3038 1543 3061 
Q 1681 3084 1819 3084 
Q 2600 3084 3056 2656 
Q 3513 2228 3513 1497 
Q 3513 744 3044 326 
Q 2575 -91 1722 -91 
Q 1428 -91 1123 -41 
Q 819 9 494 109 
L 494 744 
Q 775 591 1075 516 
Q 1375 441 1709 441 
Q 2250 441 2565 725 
Q 2881 1009 2881 1497 
Q 2881 1984 2565 2268 
Q 2250 2553 1709 2553 
Q 1456 2553 1204 2497 
Q 953 2441 691 2322 
L 691 4666 
z
" transform="scale(0.015625)"/>
       </defs>
       <use xlink:href="#DejaVuSans-2212"/>
       <use xlink:href="#DejaVuSans-30" x="83.789062"/>
       <use xlink:href="#DejaVuSans-2e" x="147.412109"/>
       <use xlink:href="#DejaVuSans-35" x="179.199219"/>
      </g>
     </g>
    </g>
    <g id="xtick_2">
     <g id="line2d_2">
      <g>
       <use xlink:href="#m8153e1aa78" x="118.058235" y="303.64" style="stroke: #000000; stroke-width: 0.8"/>
      </g>
     </g>
     <g id="text_2">
      <!-- 0.0 -->
      <g transform="translate(110.106673 318.238437)scale(0.1 -0.1)">
       <use xlink:href="#DejaVuSans-30"/>
       <use xlink:href="#DejaVuSans-2e" x="63.623047"/>
       <use xlink:href="#DejaVuSans-30" x="95.410156"/>
      </g>
     </g>
    </g>
    <g id="xtick_3">
     <g id="line2d_3">
      <g>
       <use xlink:href="#m8153e1aa78" x="168.014426" y="303.64" style="stroke: #000000; stroke-width: 0.8"/>
      </g>
     </g>
     <g id="text_3">
      <!-- 0.5 -->
      <g transform="translate(160.062863 318.238437)scale(0.1 -0.1)">
       <use xlink:href="#DejaVuSans-30"/>
       <use xlink:href="#DejaVuSans-2e" x="63.623047"/>
       <use xlink:href="#DejaVuSans-35" x="95.410156"/>
      </g>
     </g>
    </g>
    <g id="xtick_4">
     <g id="line2d_4">
      <g>
       <use xlink:href="#m8153e1aa78" x="217.970617" y="303.64" style="stroke: #000000; stroke-width: 0.8"/>
      </g>
     </g>
     <g id="text_4">
      <!-- 1.0 -->
      <g transform="translate(210.019054 318.238437)scale(0.1 -0.1)">
       <defs>
        <path id="DejaVuSans-31" d="M 794 531 
L 1825 531 
L 1825 4091 
L 703 3866 
L 703 4441 
L 1819 4666 
L 2450 4666 
L 2450 531 
L 3481 531 
L 3481 0 
L 794 0 
L 794 531 
z
" transform="scale(0.015625)"/>
       </defs>
       <use xlink:href="#DejaVuSans-31"/>
       <use xlink:href="#DejaVuSans-2e" x="63.623047"/>
       <use xlink:href="#DejaVuSans-30" x="95.410156"/>
      </g>
     </g>
    </g>
    <g id="xtick_5">
     <g id="line2d_5">
      <g>
       <use xlink:href="#m8153e1aa78" x="267.926807" y="303.64" style="stroke: #000000; stroke-width: 0.8"/>
      </g>
     </g>
     <g id="text_5">
      <!-- 1.5 -->
      <g transform="translate(259.975245 318.238437)scale(0.1 -0.1)">
       <use xlink:href="#DejaVuSans-31"/>
       <use xlink:href="#DejaVuSans-2e" x="63.623047"/>
       <use xlink:href="#DejaVuSans-35" x="95.410156"/>
      </g>
     </g>
    </g>
    <g id="xtick_6">
     <g id="line2d_6">
      <g>
       <use xlink:href="#m8153e1aa78" x="317.882998" y="303.64" style="stroke: #000000; stroke-width: 0.8"/>
      </g>
     </g>
     <g id="text_6">
      <!-- 2.0 -->
      <g transform="translate(309.931435 318.238437)scale(0.1 -0.1)">
       <defs>
        <path id="DejaVuSans-32" d="M 1228 531 
L 3431 531 
L 3431 0 
L 469 0 
L 469 531 
Q 828 903 1448 1529 
Q 2069 2156 2228 2338 
Q 2531 2678 2651 2914 
Q 2772 3150 2772 3378 
Q 2772 3750 2511 3984 
Q 2250 4219 1831 4219 
Q 1534 4219 1204 4116 
Q 875 4013 500 3803 
L 500 4441 
Q 881 4594 1212 4672 
Q 1544 4750 1819 4750 
Q 2544 4750 2975 4387 
Q 3406 4025 3406 3419 
Q 3406 3131 3298 2873 
Q 3191 2616 2906 2266 
Q 2828 2175 2409 1742 
Q 1991 1309 1228 531 
z
" transform="scale(0.015625)"/>
       </defs>
       <use xlink:href="#DejaVuSans-32"/>
       <use xlink:href="#DejaVuSans-2e" x="63.623047"/>
       <use xlink:href="#DejaVuSans-30" x="95.410156"/>
      </g>
     </g>
    </g>
    <g id="text_7">
     <!-- Rotation (rad) -->
     <g transform="translate(163.783991 331.916562)scale(0.1 -0.1)">
      <defs>
       <path id="DejaVuSans-52" d="M 2841 2188 
Q 3044 2119 3236 1894 
Q 3428 1669 3622 1275 
L 4263 0 
L 3584 0 
L 2988 1197 
Q 2756 1666 2539 1819 
Q 2322 1972 1947 1972 
L 1259 1972 
L 1259 0 
L 628 0 
L 628 4666 
L 2053 4666 
Q 2853 4666 3247 4331 
Q 3641 3997 3641 3322 
Q 3641 2881 3436 2590 
Q 3231 2300 2841 2188 
z
M 1259 4147 
L 1259 2491 
L 2053 2491 
Q 2509 2491 2742 2702 
Q 2975 2913 2975 3322 
Q 2975 3731 2742 3939 
Q 2509 4147 2053 4147 
L 1259 4147 
z
" transform="scale(0.015625)"/>
       <path id="DejaVuSans-6f" d="M 1959 3097 
Q 1497 3097 1228 2736 
Q 959 2375 959 1747 
Q 959 1119 1226 758 
Q 1494 397 1959 397 
Q 2419 397 2687 759 
Q 2956 1122 2956 1747 
Q 2956 2369 2687 2733 
Q 2419 3097 1959 3097 
z
M 1959 3584 
Q 2709 3584 3137 3096 
Q 3566 2609 3566 1747 
Q 3566 888 3137 398 
Q 2709 -91 1959 -91 
Q 1206 -91 779 398 
Q 353 888 353 1747 
Q 353 2609 779 3096 
Q 1206 3584 1959 3584 
z
" transform="scale(0.015625)"/>
       <path id="DejaVuSans-74" d="M 1172 4494 
L 1172 3500 
L 2356 3500 
L 2356 3053 
L 1172 3053 
L 1172 1153 
Q 1172 725 1289 603 
Q 1406 481 1766 481 
L 2356 481 
L 2356 0 
L 1766 0 
Q 1100 0 847 248 
Q 594 497 594 1153 
L 594 3053 
L 172 3053 
L 172 3500 
L 594 3500 
L 594 4494 
L 1172 4494 
z
" transform="scale(0.015625)"/>
       <path id="DejaVuSans-61" d="M 2194 1759 
Q 1497 1759 1228 1600 
Q 959 1441 959 1056 
Q 959 750 1161 570 
Q 1363 391 1709 391 
Q 2188 391 2477 730 
Q 2766 1069 2766 1631 
L 2766 1759 
L 2194 1759 
z
M 3341 1997 
L 3341 0 
L 2766 0 
L 2766 531 
Q 2569 213 2275 61 
Q 1981 -91 1556 -91 
Q 1019 -91 701 211 
Q 384 513 384 1019 
Q 384 1609 779 1909 
Q 1175 2209 1959 2209 
L 2766 2209 
L 2766 2266 
Q 2766 2663 2505 2880 
Q 2244 3097 1772 3097 
Q 1472 3097 1187 3025 
Q 903 2953 641 2809 
L 641 3341 
Q 956 3463 1253 3523 
Q 1550 3584 1831 3584 
Q 2591 3584 2966 3190 
Q 3341 2797 3341 1997 
z
" transform="scale(0.015625)"/>
       <path id="DejaVuSans-69" d="M 603 3500 
L 1178 3500 
L 1178 0 
L 603 0 
L 603 3500 
z
M 603 4863 
L 1178 4863 
L 1178 4134 
L 603 4134 
L 603 4863 
z
" transform="scale(0.015625)"/>
       <path id="DejaVuSans-6e" d="M 3513 2113 
L 3513 0 
L 2938 0 
L 2938 2094 
Q 2938 2591 2744 2837 
Q 2550 3084 2163 3084 
Q 1697 3084 1428 2787 
Q 1159 2491 1159 1978 
L 1159 0 
L 581 0 
L 581 3500 
L 1159 3500 
L 1159 2956 
Q 1366 3272 1645 3428 
Q 1925 3584 2291 3584 
Q 2894 3584 3203 3211 
Q 3513 2838 3513 2113 
z
" transform="scale(0.015625)"/>
       <path id="DejaVuSans-20" transform="scale(0.015625)"/>
       <path id="DejaVuSans-28" d="M 1984 4856 
Q 1566 4138 1362 3434 
Q 1159 2731 1159 2009 
Q 1159 1288 1364 580 
Q 1569 -128 1984 -844 
L 1484 -844 
Q 1016 -109 783 600 
Q 550 1309 550 2009 
Q 550 2706 781 3412 
Q 1013 4119 1484 4856 
L 1984 4856 
z
" transform="scale(0.015625)"/>
       <path id="DejaVuSans-72" d="M 2631 2963 
Q 2534 3019 2420 3045 
Q 2306 3072 2169 3072 
Q 1681 3072 1420 2755 
Q 1159 2438 1159 1844 
L 1159 0 
L 581 0 
L 581 3500 
L 1159 3500 
L 1159 2956 
Q 1341 3275 1631 3429 
Q 1922 3584 2338 3584 
Q 2397 3584 2469 3576 
Q 2541 3569 2628 3553 
L 2631 2963 
z
" transform="scale(0.015625)"/>
       <path id="DejaVuSans-64" d="M 2906 2969 
L 2906 4863 
L 3481 4863 
L 3481 0 
L 2906 0 
L 2906 525 
Q 2725 213 2448 61 
Q 2172 -91 1784 -91 
Q 1150 -91 751 415 
Q 353 922 353 1747 
Q 353 2572 751 3078 
Q 1150 3584 1784 3584 
Q 2172 3584 2448 3432 
Q 2725 3281 2906 2969 
z
M 947 1747 
Q 947 1113 1208 752 
Q 1469 391 1925 391 
Q 2381 391 2643 752 
Q 2906 1113 2906 1747 
Q 2906 2381 2643 2742 
Q 2381 3103 1925 3103 
Q 1469 3103 1208 2742 
Q 947 2381 947 1747 
z
" transform="scale(0.015625)"/>
       <path id="DejaVuSans-29" d="M 513 4856 
L 1013 4856 
Q 1481 4119 1714 3412 
Q 1947 2706 1947 2009 
Q 1947 1309 1714 600 
Q 1481 -109 1013 -844 
L 513 -844 
Q 928 -128 1133 580 
Q 1338 1288 1338 2009 
Q 1338 2731 1133 3434 
Q 928 4138 513 4856 
z
" transform="scale(0.015625)"/>
      </defs>
      <use xlink:href="#DejaVuSans-52"/>
      <use xlink:href="#DejaVuSans-6f" x="64.982422"/>
      <use xlink:href="#DejaVuSans-74" x="126.164062"/>
      <use xlink:href="#DejaVuSans-61" x="165.373047"/>
      <use xlink:href="#DejaVuSans-74" x="226.652344"/>
      <use xlink:href="#DejaVuSans-69" x="265.861328"/>
      <use xlink:href="#DejaVuSans-6f" x="293.644531"/>
      <use xlink:href="#DejaVuSans-6e" x="354.826172"/>
      <use xlink:href="#DejaVuSans-20" x="418.205078"/>
      <use xlink:href="#DejaVuSans-28" x="449.992188"/>
      <use xlink:href="#DejaVuSans-72" x="489.005859"/>
      <use xlink:href="#DejaVuSans-61" x="530.119141"/>
      <use xlink:href="#DejaVuSans-64" x="591.398438"/>
      <use xlink:href="#DejaVuSans-29" x="654.875"/>
     </g>
    </g>
   </g>
   <g id="matplotlib.axis_2">
    <g id="ytick_1">
     <g id="line2d_7">
      <defs>
       <path id="m792334d823" d="M 0 0 
L -3.5 0 
" style="stroke: #000000; stroke-width: 0.8"/>
      </defs>
      <g>
       <use xlink:href="#m792334d823" x="68.102045" y="290.329091" style="stroke: #000000; stroke-width: 0.8"/>
      </g>
     </g>
     <g id="text_8">
      <!-- 0 -->
      <g transform="translate(54.739545 294.12831)scale(0.1 -0.1)">
       <use xlink:href="#DejaVuSans-30"/>
      </g>
     </g>
    </g>
    <g id="ytick_2">
     <g id="line2d_8">
      <g>
       <use xlink:href="#m792334d823" x="68.102045" y="24.110909" style="stroke: #000000; stroke-width: 0.8"/>
      </g>
     </g>
     <g id="text_9">
      <!-- $\mathtt{height}$ -->
      <g transform="translate(24.902045 27.910909)scale(0.1 -0.1)">
       <defs>
        <path id="DejaVuSansMono-68" d="M 3284 2169 
L 3284 0 
L 2706 0 
L 2706 2169 
Q 2706 2641 2540 2862 
Q 2375 3084 2022 3084 
Q 1619 3084 1401 2798 
Q 1184 2513 1184 1978 
L 1184 0 
L 609 0 
L 609 4863 
L 1184 4863 
L 1184 2975 
Q 1338 3275 1600 3429 
Q 1863 3584 2222 3584 
Q 2756 3584 3020 3232 
Q 3284 2881 3284 2169 
z
" transform="scale(0.015625)"/>
        <path id="DejaVuSansMono-65" d="M 3475 1894 
L 3475 1613 
L 984 1613 
L 984 1594 
Q 984 1022 1282 709 
Q 1581 397 2125 397 
Q 2400 397 2700 484 
Q 3000 572 3341 750 
L 3341 178 
Q 3013 44 2708 -23 
Q 2403 -91 2119 -91 
Q 1303 -91 843 398 
Q 384 888 384 1747 
Q 384 2584 834 3084 
Q 1284 3584 2034 3584 
Q 2703 3584 3089 3131 
Q 3475 2678 3475 1894 
z
M 2900 2063 
Q 2888 2569 2661 2833 
Q 2434 3097 2009 3097 
Q 1594 3097 1325 2822 
Q 1056 2547 1006 2059 
L 2900 2063 
z
" transform="scale(0.015625)"/>
        <path id="DejaVuSansMono-69" d="M 800 3500 
L 2272 3500 
L 2272 447 
L 3413 447 
L 3413 0 
L 556 0 
L 556 447 
L 1697 447 
L 1697 3053 
L 800 3053 
L 800 3500 
z
M 1697 4863 
L 2272 4863 
L 2272 4134 
L 1697 4134 
L 1697 4863 
z
" transform="scale(0.015625)"/>
        <path id="DejaVuSansMono-67" d="M 2681 1778 
Q 2681 2425 2470 2761 
Q 2259 3097 1856 3097 
Q 1434 3097 1212 2761 
Q 991 2425 991 1778 
Q 991 1131 1214 792 
Q 1438 453 1863 453 
Q 2259 453 2470 793 
Q 2681 1134 2681 1778 
z
M 3256 225 
Q 3256 -563 2884 -969 
Q 2513 -1375 1791 -1375 
Q 1553 -1375 1293 -1331 
Q 1034 -1288 775 -1203 
L 775 -634 
Q 1081 -778 1331 -847 
Q 1581 -916 1791 -916 
Q 2256 -916 2468 -662 
Q 2681 -409 2681 141 
L 2681 166 
L 2681 556 
Q 2544 263 2306 119 
Q 2069 -25 1728 -25 
Q 1116 -25 750 465 
Q 384 956 384 1778 
Q 384 2603 750 3093 
Q 1116 3584 1728 3584 
Q 2066 3584 2300 3450 
Q 2534 3316 2681 3034 
L 2681 3488 
L 3256 3488 
L 3256 225 
z
" transform="scale(0.015625)"/>
        <path id="DejaVuSansMono-74" d="M 1919 4494 
L 1919 3500 
L 3225 3500 
L 3225 3053 
L 1919 3053 
L 1919 1153 
Q 1919 766 2066 612 
Q 2213 459 2578 459 
L 3225 459 
L 3225 0 
L 2522 0 
Q 1875 0 1609 259 
Q 1344 519 1344 1153 
L 1344 3053 
L 409 3053 
L 409 3500 
L 1344 3500 
L 1344 4494 
L 1919 4494 
z
" transform="scale(0.015625)"/>
       </defs>
       <use xlink:href="#DejaVuSansMono-68" transform="translate(0 0.015625)"/>
       <use xlink:href="#DejaVuSansMono-65" transform="translate(60.205078 0.015625)"/>
       <use xlink:href="#DejaVuSansMono-69" transform="translate(120.410156 0.015625)"/>
       <use xlink:href="#DejaVuSansMono-67" transform="translate(180.615234 0.015625)"/>
       <use xlink:href="#DejaVuSansMono-68" transform="translate(240.820312 0.015625)"/>
       <use xlink:href="#DejaVuSansMono-74" transform="translate(301.025391 0.015625)"/>
      </g>
     </g>
    </g>
    <g id="text_10">
     <!-- $z$ (mm) -->
     <g transform="translate(18.822357 175.12)rotate(-90)scale(0.1 -0.1)">
      <defs>
       <path id="DejaVuSans-Oblique-7a" d="M 744 3500 
L 3475 3500 
L 3372 2975 
L 738 459 
L 2913 459 
L 2822 0 
L -19 0 
L 84 525 
L 2719 3041 
L 653 3041 
L 744 3500 
z
" transform="scale(0.015625)"/>
       <path id="DejaVuSans-6d" d="M 3328 2828 
Q 3544 3216 3844 3400 
Q 4144 3584 4550 3584 
Q 5097 3584 5394 3201 
Q 5691 2819 5691 2113 
L 5691 0 
L 5113 0 
L 5113 2094 
Q 5113 2597 4934 2840 
Q 4756 3084 4391 3084 
Q 3944 3084 3684 2787 
Q 3425 2491 3425 1978 
L 3425 0 
L 2847 0 
L 2847 2094 
Q 2847 2600 2669 2842 
Q 2491 3084 2119 3084 
Q 1678 3084 1418 2786 
Q 1159 2488 1159 1978 
L 1159 0 
L 581 0 
L 581 3500 
L 1159 3500 
L 1159 2956 
Q 1356 3278 1631 3431 
Q 1906 3584 2284 3584 
Q 2666 3584 2933 3390 
Q 3200 3197 3328 2828 
z
" transform="scale(0.015625)"/>
      </defs>
      <use xlink:href="#DejaVuSans-Oblique-7a" transform="translate(0 0.125)"/>
      <use xlink:href="#DejaVuSans-20" transform="translate(52.490234 0.125)"/>
      <use xlink:href="#DejaVuSans-28" transform="translate(84.277344 0.125)"/>
      <use xlink:href="#DejaVuSans-6d" transform="translate(123.291016 0.125)"/>
      <use xlink:href="#DejaVuSans-6d" transform="translate(220.703125 0.125)"/>
      <use xlink:href="#DejaVuSans-29" transform="translate(318.115234 0.125)"/>
     </g>
    </g>
   </g>
   <g id="line2d_9">
    <path d="M 118.058235 290.329091 
L 120.076667 287.640018 
L 122.095099 284.950946 
L 124.113531 282.261873 
L 126.131963 279.572801 
L 128.150395 276.883728 
L 130.168827 274.194656 
L 132.187259 271.505583 
L 134.205691 268.816511 
L 136.224123 266.127438 
L 138.242555 263.438365 
L 140.260987 260.749293 
L 142.279419 258.06022 
L 144.297851 255.371148 
L 146.316283 252.682075 
L 148.334714 249.993003 
L 150.353146 247.30393 
L 152.371578 244.614858 
L 154.39001 241.925785 
L 156.408442 239.236713 
L 158.426874 236.54764 
L 160.445306 233.858567 
L 162.463738 231.169495 
L 164.48217 228.480422 
L 166.500602 225.79135 
L 168.519034 223.102277 
L 170.537466 220.413205 
L 172.555898 217.724132 
L 174.57433 215.03506 
L 176.592762 212.345987 
L 178.611194 209.656915 
L 180.629626 206.967842 
L 182.648058 204.27877 
L 184.666489 201.589697 
L 186.684921 198.900624 
L 188.703353 196.211552 
L 190.721785 193.522479 
L 192.740217 190.833407 
L 194.758649 188.144334 
L 196.777081 185.455262 
L 198.795513 182.766189 
L 200.813945 180.077117 
L 202.832377 177.388044 
L 204.850809 174.698972 
L 206.869241 172.009899 
L 208.887673 169.320826 
L 210.906105 166.631754 
L 212.924537 163.942681 
L 214.942969 161.253609 
L 216.961401 158.564536 
L 218.979833 155.875464 
L 220.998264 153.186391 
L 223.016696 150.497319 
L 225.035128 147.808246 
L 227.05356 145.119174 
L 229.071992 142.430101 
L 231.090424 139.741028 
L 233.108856 137.051956 
L 235.127288 134.362883 
L 237.14572 131.673811 
L 239.164152 128.984738 
L 241.182584 126.295666 
L 243.201016 123.606593 
L 245.219448 120.917521 
L 247.23788 118.228448 
L 249.256312 115.539376 
L 251.274744 112.850303 
L 253.293176 110.16123 
L 255.311608 107.472158 
L 257.330039 104.783085 
L 259.348471 102.094013 
L 261.366903 99.40494 
L 263.385335 96.715868 
L 265.403767 94.026795 
L 267.422199 91.337723 
L 269.440631 88.64865 
L 271.459063 85.959578 
L 273.477495 83.270505 
L 275.495927 80.581433 
L 277.514359 77.89236 
L 279.532791 75.203287 
L 281.551223 72.514215 
L 283.569655 69.825142 
L 285.588087 67.13607 
L 287.606519 64.446997 
L 289.624951 61.757925 
L 291.643383 59.068852 
L 293.661814 56.37978 
L 295.680246 53.690707 
L 297.698678 51.001635 
L 299.71711 48.312562 
L 301.735542 45.623489 
L 303.753974 42.934417 
L 305.772406 40.245344 
L 307.790838 37.556272 
L 309.80927 34.867199 
L 311.827702 32.178127 
L 313.846134 29.489054 
L 315.864566 26.799982 
L 317.882998 24.110909 
" clip-path="url(#pf9a113d81b)" style="fill: none; stroke: #1f77b4; stroke-width: 1.5; stroke-linecap: square"/>
   </g>
   <g id="line2d_10">
    <path d="M 118.058235 290.329091 
L 120.541694 287.640018 
L 122.985194 284.950946 
L 125.349417 282.261873 
L 127.596321 279.572801 
L 129.689755 276.883728 
L 131.596033 274.194656 
L 133.284483 271.505583 
L 134.727937 268.816511 
L 135.903169 266.127438 
L 136.791269 263.438365 
L 137.377948 260.749293 
L 137.653765 258.06022 
L 137.614283 255.371148 
L 137.260137 252.682075 
L 136.597025 249.993003 
L 135.635617 247.30393 
L 134.391383 244.614858 
L 132.884342 241.925785 
L 131.138743 239.236713 
L 129.182674 236.54764 
L 127.047609 233.858567 
L 124.767901 231.169495 
L 122.380232 228.480422 
L 119.923021 225.79135 
L 117.435805 223.102277 
L 114.958603 220.413205 
L 112.531276 217.724132 
L 110.19288 215.03506 
L 107.981041 212.345987 
L 105.931347 209.656915 
L 104.076779 206.967842 
L 102.447178 204.27877 
L 101.068765 201.589697 
L 99.963719 198.900624 
L 99.149821 196.211552 
L 98.640166 193.522479 
L 98.442954 190.833407 
L 98.561361 188.144334 
L 98.993479 185.455262 
L 99.732356 182.766189 
L 100.766103 180.077117 
L 102.078088 177.388044 
L 103.647199 174.698972 
L 105.448189 172.009899 
L 107.452079 169.320826 
L 109.626626 166.631754 
L 111.936841 163.942681 
L 114.345552 161.253609 
L 116.814001 158.564536 
L 119.30247 155.875464 
L 121.770919 153.186391 
L 124.179629 150.497319 
L 126.489845 147.808246 
L 128.664392 145.119174 
L 130.668282 142.430101 
L 132.469272 139.741028 
L 134.038383 137.051956 
L 135.350367 134.362883 
L 136.384115 131.673811 
L 137.122992 128.984738 
L 137.55511 126.295666 
L 137.673516 123.606593 
L 137.476305 120.917521 
L 136.96665 118.228448 
L 136.152751 115.539376 
L 135.047705 112.850303 
L 133.669292 110.16123 
L 132.039692 107.472158 
L 130.185124 104.783085 
L 128.13543 102.094013 
L 125.92359 99.40494 
L 123.585194 96.715868 
L 121.157867 94.026795 
L 118.680666 91.337723 
L 116.19345 88.64865 
L 113.736238 85.959578 
L 111.34857 83.270505 
L 109.068862 80.581433 
L 106.933797 77.89236 
L 104.977728 75.203287 
L 103.232129 72.514215 
L 101.725088 69.825142 
L 100.480853 67.13607 
L 99.519445 64.446997 
L 98.856333 61.757925 
L 98.502187 59.068852 
L 98.462705 56.37978 
L 98.738523 53.690707 
L 99.325202 51.001635 
L 100.213302 48.312562 
L 101.388534 45.623489 
L 102.831988 42.934417 
L 104.520438 40.245344 
L 106.426716 37.556272 
L 108.520149 34.867199 
L 110.767054 32.178127 
L 113.131277 29.489054 
L 115.574776 26.799982 
L 118.058235 24.110909 
" clip-path="url(#pf9a113d81b)" style="fill: none; stroke: #ff7f0e; stroke-width: 1.5; stroke-linecap: square"/>
   </g>
   <g id="line2d_11">
    <path d="M 118.058235 290.329091 
L 122.560126 287.640018 
L 127.022058 284.950946 
L 131.404712 282.261873 
L 135.670049 279.572801 
L 139.781915 276.883728 
L 143.706625 274.194656 
L 147.413506 271.505583 
L 150.875392 268.816511 
L 154.069056 266.127438 
L 156.975588 263.438365 
L 159.580699 260.749293 
L 161.874949 258.06022 
L 163.853899 255.371148 
L 165.518184 252.682075 
L 166.873504 249.993003 
L 167.930528 247.30393 
L 168.704726 244.614858 
L 169.216117 241.925785 
L 169.48895 239.236713 
L 169.551313 236.54764 
L 169.43468 233.858567 
L 169.173404 231.169495 
L 168.804167 228.480422 
L 168.365388 225.79135 
L 167.896603 223.102277 
L 167.437834 220.413205 
L 167.028939 217.724132 
L 166.708975 215.03506 
L 166.515567 212.345987 
L 166.484305 209.656915 
L 166.648169 206.967842 
L 167.037001 204.27877 
L 167.677019 201.589697 
L 168.590405 198.900624 
L 169.794939 196.211552 
L 171.303716 193.522479 
L 173.124936 190.833407 
L 175.261774 188.144334 
L 177.712325 185.455262 
L 180.469634 182.766189 
L 183.521813 180.077117 
L 186.852229 177.388044 
L 190.439772 174.698972 
L 194.259194 172.009899 
L 198.281516 169.320826 
L 202.474496 166.631754 
L 206.803143 163.942681 
L 211.230285 161.253609 
L 215.717166 158.564536 
L 220.224067 155.875464 
L 224.710948 153.186391 
L 229.138091 150.497319 
L 233.466738 147.808246 
L 237.659717 145.119174 
L 241.682039 142.430101 
L 245.501461 139.741028 
L 249.089004 137.051956 
L 252.41942 134.362883 
L 255.471599 131.673811 
L 258.228909 128.984738 
L 260.679459 126.295666 
L 262.816297 123.606593 
L 264.637518 120.917521 
L 266.146294 118.228448 
L 267.350828 115.539376 
L 268.264214 112.850303 
L 268.904233 110.16123 
L 269.293064 107.472158 
L 269.456928 104.783085 
L 269.425666 102.094013 
L 269.232258 99.40494 
L 268.912294 96.715868 
L 268.503399 94.026795 
L 268.04463 91.337723 
L 267.575845 88.64865 
L 267.137066 85.959578 
L 266.767829 83.270505 
L 266.506554 80.581433 
L 266.38992 77.89236 
L 266.452283 75.203287 
L 266.725116 72.514215 
L 267.236507 69.825142 
L 268.010705 67.13607 
L 269.067729 64.446997 
L 270.423049 61.757925 
L 272.087335 59.068852 
L 274.066285 56.37978 
L 276.360534 53.690707 
L 278.965645 51.001635 
L 281.872177 48.312562 
L 285.065841 45.623489 
L 288.527727 42.934417 
L 292.234609 40.245344 
L 296.159318 37.556272 
L 300.271184 34.867199 
L 304.536521 32.178127 
L 308.919175 29.489054 
L 313.381107 26.799982 
L 317.882998 24.110909 
" clip-path="url(#pf9a113d81b)" style="fill: none; stroke: #2ca02c; stroke-width: 1.5; stroke-linecap: square"/>
   </g>
   <g id="patch_3">
    <path d="M 68.102045 303.64 
L 68.102045 10.8 
" style="fill: none; stroke: #000000; stroke-width: 0.8; stroke-linejoin: miter; stroke-linecap: square"/>
   </g>
   <g id="patch_4">
    <path d="M 328.855 303.64 
L 328.855 10.8 
" style="fill: none; stroke: #000000; stroke-width: 0.8; stroke-linejoin: miter; stroke-linecap: square"/>
   </g>
   <g id="patch_5">
    <path d="M 68.102045 303.64 
L 328.855 303.64 
" style="fill: none; stroke: #000000; stroke-width: 0.8; stroke-linejoin: miter; stroke-linecap: square"/>
   </g>
   <g id="patch_6">
    <path d="M 68.102045 10.8 
L 328.855 10.8 
" style="fill: none; stroke: #000000; stroke-width: 0.8; stroke-linejoin: miter; stroke-linecap: square"/>
   </g>
   <g id="legend_1">
    <g id="patch_7">
     <path d="M 335.855 180.737188 
L 448.003438 180.737188 
Q 450.003438 180.737188 450.003438 178.737188 
L 450.003438 135.702812 
Q 450.003438 133.702812 448.003438 133.702812 
L 335.855 133.702812 
Q 333.855 133.702812 333.855 135.702812 
L 333.855 178.737188 
Q 333.855 180.737188 335.855 180.737188 
z
" style="fill: #ffffff; opacity: 0.8; stroke: #cccccc; stroke-linejoin: miter"/>
    </g>
    <g id="line2d_12">
     <path d="M 337.855 141.80125 
L 347.855 141.80125 
L 357.855 141.80125 
" style="fill: none; stroke: #1f77b4; stroke-width: 1.5; stroke-linecap: square"/>
    </g>
    <g id="text_11">
     <!-- Linear Twist -->
     <g transform="translate(365.855 145.30125)scale(0.1 -0.1)">
      <defs>
       <path id="DejaVuSans-4c" d="M 628 4666 
L 1259 4666 
L 1259 531 
L 3531 531 
L 3531 0 
L 628 0 
L 628 4666 
z
" transform="scale(0.015625)"/>
       <path id="DejaVuSans-65" d="M 3597 1894 
L 3597 1613 
L 953 1613 
Q 991 1019 1311 708 
Q 1631 397 2203 397 
Q 2534 397 2845 478 
Q 3156 559 3463 722 
L 3463 178 
Q 3153 47 2828 -22 
Q 2503 -91 2169 -91 
Q 1331 -91 842 396 
Q 353 884 353 1716 
Q 353 2575 817 3079 
Q 1281 3584 2069 3584 
Q 2775 3584 3186 3129 
Q 3597 2675 3597 1894 
z
M 3022 2063 
Q 3016 2534 2758 2815 
Q 2500 3097 2075 3097 
Q 1594 3097 1305 2825 
Q 1016 2553 972 2059 
L 3022 2063 
z
" transform="scale(0.015625)"/>
       <path id="DejaVuSans-54" d="M -19 4666 
L 3928 4666 
L 3928 4134 
L 2272 4134 
L 2272 0 
L 1638 0 
L 1638 4134 
L -19 4134 
L -19 4666 
z
" transform="scale(0.015625)"/>
       <path id="DejaVuSans-77" d="M 269 3500 
L 844 3500 
L 1563 769 
L 2278 3500 
L 2956 3500 
L 3675 769 
L 4391 3500 
L 4966 3500 
L 4050 0 
L 3372 0 
L 2619 2869 
L 1863 0 
L 1184 0 
L 269 3500 
z
" transform="scale(0.015625)"/>
       <path id="DejaVuSans-73" d="M 2834 3397 
L 2834 2853 
Q 2591 2978 2328 3040 
Q 2066 3103 1784 3103 
Q 1356 3103 1142 2972 
Q 928 2841 928 2578 
Q 928 2378 1081 2264 
Q 1234 2150 1697 2047 
L 1894 2003 
Q 2506 1872 2764 1633 
Q 3022 1394 3022 966 
Q 3022 478 2636 193 
Q 2250 -91 1575 -91 
Q 1294 -91 989 -36 
Q 684 19 347 128 
L 347 722 
Q 666 556 975 473 
Q 1284 391 1588 391 
Q 1994 391 2212 530 
Q 2431 669 2431 922 
Q 2431 1156 2273 1281 
Q 2116 1406 1581 1522 
L 1381 1569 
Q 847 1681 609 1914 
Q 372 2147 372 2553 
Q 372 3047 722 3315 
Q 1072 3584 1716 3584 
Q 2034 3584 2315 3537 
Q 2597 3491 2834 3397 
z
" transform="scale(0.015625)"/>
      </defs>
      <use xlink:href="#DejaVuSans-4c"/>
      <use xlink:href="#DejaVuSans-69" x="55.712891"/>
      <use xlink:href="#DejaVuSans-6e" x="83.496094"/>
      <use xlink:href="#DejaVuSans-65" x="146.875"/>
      <use xlink:href="#DejaVuSans-61" x="208.398438"/>
      <use xlink:href="#DejaVuSans-72" x="269.677734"/>
      <use xlink:href="#DejaVuSans-20" x="310.791016"/>
      <use xlink:href="#DejaVuSans-54" x="342.578125"/>
      <use xlink:href="#DejaVuSans-77" x="387.162109"/>
      <use xlink:href="#DejaVuSans-69" x="468.949219"/>
      <use xlink:href="#DejaVuSans-73" x="496.732422"/>
      <use xlink:href="#DejaVuSans-74" x="548.832031"/>
     </g>
    </g>
    <g id="line2d_13">
     <path d="M 337.855 156.479375 
L 347.855 156.479375 
L 357.855 156.479375 
" style="fill: none; stroke: #ff7f0e; stroke-width: 1.5; stroke-linecap: square"/>
    </g>
    <g id="text_12">
     <!-- Oscillating Twist -->
     <g transform="translate(365.855 159.979375)scale(0.1 -0.1)">
      <defs>
       <path id="DejaVuSans-4f" d="M 2522 4238 
Q 1834 4238 1429 3725 
Q 1025 3213 1025 2328 
Q 1025 1447 1429 934 
Q 1834 422 2522 422 
Q 3209 422 3611 934 
Q 4013 1447 4013 2328 
Q 4013 3213 3611 3725 
Q 3209 4238 2522 4238 
z
M 2522 4750 
Q 3503 4750 4090 4092 
Q 4678 3434 4678 2328 
Q 4678 1225 4090 567 
Q 3503 -91 2522 -91 
Q 1538 -91 948 565 
Q 359 1222 359 2328 
Q 359 3434 948 4092 
Q 1538 4750 2522 4750 
z
" transform="scale(0.015625)"/>
       <path id="DejaVuSans-63" d="M 3122 3366 
L 3122 2828 
Q 2878 2963 2633 3030 
Q 2388 3097 2138 3097 
Q 1578 3097 1268 2742 
Q 959 2388 959 1747 
Q 959 1106 1268 751 
Q 1578 397 2138 397 
Q 2388 397 2633 464 
Q 2878 531 3122 666 
L 3122 134 
Q 2881 22 2623 -34 
Q 2366 -91 2075 -91 
Q 1284 -91 818 406 
Q 353 903 353 1747 
Q 353 2603 823 3093 
Q 1294 3584 2113 3584 
Q 2378 3584 2631 3529 
Q 2884 3475 3122 3366 
z
" transform="scale(0.015625)"/>
       <path id="DejaVuSans-6c" d="M 603 4863 
L 1178 4863 
L 1178 0 
L 603 0 
L 603 4863 
z
" transform="scale(0.015625)"/>
       <path id="DejaVuSans-67" d="M 2906 1791 
Q 2906 2416 2648 2759 
Q 2391 3103 1925 3103 
Q 1463 3103 1205 2759 
Q 947 2416 947 1791 
Q 947 1169 1205 825 
Q 1463 481 1925 481 
Q 2391 481 2648 825 
Q 2906 1169 2906 1791 
z
M 3481 434 
Q 3481 -459 3084 -895 
Q 2688 -1331 1869 -1331 
Q 1566 -1331 1297 -1286 
Q 1028 -1241 775 -1147 
L 775 -588 
Q 1028 -725 1275 -790 
Q 1522 -856 1778 -856 
Q 2344 -856 2625 -561 
Q 2906 -266 2906 331 
L 2906 616 
Q 2728 306 2450 153 
Q 2172 0 1784 0 
Q 1141 0 747 490 
Q 353 981 353 1791 
Q 353 2603 747 3093 
Q 1141 3584 1784 3584 
Q 2172 3584 2450 3431 
Q 2728 3278 2906 2969 
L 2906 3500 
L 3481 3500 
L 3481 434 
z
" transform="scale(0.015625)"/>
      </defs>
      <use xlink:href="#DejaVuSans-4f"/>
      <use xlink:href="#DejaVuSans-73" x="78.710938"/>
      <use xlink:href="#DejaVuSans-63" x="130.810547"/>
      <use xlink:href="#DejaVuSans-69" x="185.791016"/>
      <use xlink:href="#DejaVuSans-6c" x="213.574219"/>
      <use xlink:href="#DejaVuSans-6c" x="241.357422"/>
      <use xlink:href="#DejaVuSans-61" x="269.140625"/>
      <use xlink:href="#DejaVuSans-74" x="330.419922"/>
      <use xlink:href="#DejaVuSans-69" x="369.628906"/>
      <use xlink:href="#DejaVuSans-6e" x="397.412109"/>
      <use xlink:href="#DejaVuSans-67" x="460.791016"/>
      <use xlink:href="#DejaVuSans-20" x="524.267578"/>
      <use xlink:href="#DejaVuSans-54" x="556.054688"/>
      <use xlink:href="#DejaVuSans-77" x="600.638672"/>
      <use xlink:href="#DejaVuSans-69" x="682.425781"/>
      <use xlink:href="#DejaVuSans-73" x="710.208984"/>
      <use xlink:href="#DejaVuSans-74" x="762.308594"/>
     </g>
    </g>
    <g id="line2d_14">
     <path d="M 337.855 171.1575 
L 347.855 171.1575 
L 357.855 171.1575 
" style="fill: none; stroke: #2ca02c; stroke-width: 1.5; stroke-linecap: square"/>
    </g>
    <g id="text_13">
     <!-- Combined Twist -->
     <g transform="translate(365.855 174.6575)scale(0.1 -0.1)">
      <defs>
       <path id="DejaVuSans-43" d="M 4122 4306 
L 4122 3641 
Q 3803 3938 3442 4084 
Q 3081 4231 2675 4231 
Q 1875 4231 1450 3742 
Q 1025 3253 1025 2328 
Q 1025 1406 1450 917 
Q 1875 428 2675 428 
Q 3081 428 3442 575 
Q 3803 722 4122 1019 
L 4122 359 
Q 3791 134 3420 21 
Q 3050 -91 2638 -91 
Q 1578 -91 968 557 
Q 359 1206 359 2328 
Q 359 3453 968 4101 
Q 1578 4750 2638 4750 
Q 3056 4750 3426 4639 
Q 3797 4528 4122 4306 
z
" transform="scale(0.015625)"/>
       <path id="DejaVuSans-62" d="M 3116 1747 
Q 3116 2381 2855 2742 
Q 2594 3103 2138 3103 
Q 1681 3103 1420 2742 
Q 1159 2381 1159 1747 
Q 1159 1113 1420 752 
Q 1681 391 2138 391 
Q 2594 391 2855 752 
Q 3116 1113 3116 1747 
z
M 1159 2969 
Q 1341 3281 1617 3432 
Q 1894 3584 2278 3584 
Q 2916 3584 3314 3078 
Q 3713 2572 3713 1747 
Q 3713 922 3314 415 
Q 2916 -91 2278 -91 
Q 1894 -91 1617 61 
Q 1341 213 1159 525 
L 1159 0 
L 581 0 
L 581 4863 
L 1159 4863 
L 1159 2969 
z
" transform="scale(0.015625)"/>
      </defs>
      <use xlink:href="#DejaVuSans-43"/>
      <use xlink:href="#DejaVuSans-6f" x="69.824219"/>
      <use xlink:href="#DejaVuSans-6d" x="131.005859"/>
      <use xlink:href="#DejaVuSans-62" x="228.417969"/>
      <use xlink:href="#DejaVuSans-69" x="291.894531"/>
      <use xlink:href="#DejaVuSans-6e" x="319.677734"/>
      <use xlink:href="#DejaVuSans-65" x="383.056641"/>
      <use xlink:href="#DejaVuSans-64" x="444.580078"/>
      <use xlink:href="#DejaVuSans-20" x="508.056641"/>
      <use xlink:href="#DejaVuSans-54" x="539.84375"/>
      <use xlink:href="#DejaVuSans-77" x="584.427734"/>
      <use xlink:href="#DejaVuSans-69" x="666.214844"/>
      <use xlink:href="#DejaVuSans-73" x="693.998047"/>
      <use xlink:href="#DejaVuSans-74" x="746.097656"/>
     </g>
    </g>
   </g>
  </g>
 </g>
 <defs>
  <clipPath id="pf9a113d81b">
   <rect x="68.102045" y="10.8" width="260.752955" height="292.84"/>
  </clipPath>
 </defs>
</svg>
